<?xml version="1.0" standalone="no"?>
<!DOCTYPE svg PUBLIC "-//W3C//DTD SVG 1.1//EN" "http://www.w3.org/Graphics/SVG/1.1/DTD/svg11.dtd" >
<svg xmlns="http://www.w3.org/2000/svg">
<metadata></metadata>
<defs>
<font id="tonyblair_stdbold" horiz-adv-x="1968" >
<font-face units-per-em="2048" ascent="1530" descent="-518" />
<missing-glyph horiz-adv-x="614" />
<glyph unicode="&#xfb01;" horiz-adv-x="2445" d="M205 0v1260h1368v-285h-1008v-205h684v-285h-684v-485h-360zM1880 0v1260h361v-1260h-361z" />
<glyph unicode="&#xfb02;" horiz-adv-x="3280" d="M205 0v1260h1368v-285h-1008v-205h684v-285h-684v-485h-360zM1864 0v1260h360v-975h969v-285h-1329z" />
<glyph horiz-adv-x="0" />
<glyph horiz-adv-x="682" />
<glyph unicode=" "  horiz-adv-x="614" />
<glyph unicode="&#x09;" horiz-adv-x="614" />
<glyph unicode="&#xa0;" horiz-adv-x="614" />
<glyph unicode="!" horiz-adv-x="849" d="M205 1317v166h440v-166l-121 -926h-200zM236 0v285h376v-285h-376z" />
<glyph unicode="&#x22;" horiz-adv-x="677" d="M80 879v559h192v-559h-192zM406 879v559h192v-559h-192z" />
<glyph unicode="#" horiz-adv-x="1697" d="M182 469v276h201l37 218h-152v276h199l43 242h309l-41 -242h238l43 242h315l-43 -242h158v-276h-201l-37 -218h146v-276h-197l-51 -295h-315l53 295h-238l-53 -295h-311l49 295h-152zM698 745h238l35 218h-238z" />
<glyph unicode="$" horiz-adv-x="2060" d="M113 250l194 237q252 -159 545 -208v335q-666 53 -666 420q0 196 170 315.5t496 147.5v86h317v-88q440 -38 684 -209l-200 -233q-226 128 -484 155v-286q375 -17 556.5 -124.5t181.5 -318.5q0 -223 -187.5 -351.5t-550.5 -150.5v-112h-317v121q-406 34 -739 264z M557 1065q0 -109 295 -127v270q-295 -27 -295 -143zM1169 266q179 17 270 68t91 131q0 137 -361 137v-336z" />
<glyph unicode="%" horiz-adv-x="2342" d="M143 1110q0 125 78 229q64 83 159 128.5t204 45.5t203 -45.5t157 -128.5q80 -106 80 -229q0 -166 -127 -282.5t-313 -116.5q-187 0 -314 116t-127 283zM328 -20l1325 1503h362l-1323 -1503h-364zM418 1110q0 -62 48 -107t118 -45t118 45t48 107q0 65 -48 110.5t-118 45.5 q-69 0 -117.5 -46.5t-48.5 -109.5zM1319 371q0 125 78 229q63 83 157 128.5t203 45.5t204 -45.5t159 -128.5q80 -103 80 -229q0 -165 -128.5 -282.5t-314.5 -117.5q-183 0 -303 111q-135 123 -135 289zM1593 371q0 -63 47.5 -107.5t116.5 -44.5q71 0 119.5 45t48.5 107 q0 63 -49 109t-119 46q-67 0 -115.5 -46t-48.5 -109z" />
<glyph unicode="&#x26;" horiz-adv-x="2029" d="M90 436q0 312 488 445q-52 101 -52 202q0 137 88 242q69 83 172 128.5t222 45.5q197 0 319.5 -110t122.5 -281q0 -133 -89.5 -236.5t-260.5 -164.5q98 -113 217 -209q124 136 180 315h344q-82 -266 -266 -477q143 -41 289 -41h20v-299q-308 9 -579 133 q-330 -149 -592 -149q-276 0 -449.5 131.5t-173.5 324.5zM426 428q0 -77 84 -120.5t242 -43.5q131 0 301 64q-161 145 -289 303q-338 -50 -338 -203zM858 1079q0 -61 49 -137q102 13 158.5 58t56.5 106q0 48 -34 80.5t-89 32.5q-61 0 -101 -40.5t-40 -99.5z" />
<glyph unicode="'" horiz-adv-x="352" d="M80 879v559h192v-559h-192z" />
<glyph unicode="(" horiz-adv-x="1028" d="M178 664q0 209 58.5 392.5t164.5 317.5q93 118 215 178t291 72v-139q-174 -2 -273 -213.5t-99 -607.5q0 -398 96 -605t276 -209v-139q-170 12 -292 70.5t-214 173.5q-106 133 -164.5 315.5t-58.5 393.5z" />
<glyph unicode=")" horiz-adv-x="1028" d="M106 -150q179 2 276 210t97 604q0 395 -99 607t-274 214v139q169 -12 291 -72t215 -178q106 -132 165 -316.5t59 -393.5q0 -210 -59 -393t-165 -316q-93 -115 -215 -173.5t-291 -70.5v139z" />
<glyph unicode="*" horiz-adv-x="1259" d="M104 1047l80 229l314 -113l-39 320h305l-39 -320l313 113l80 -229l-340 -64l219 -250l-211 -141l-176 287l-176 -287l-209 141l219 250z" />
<glyph unicode="+" d="M354 496v243h504v480h246v-480h508v-243h-508v-486h-246v486h-504z" />
<glyph unicode="," horiz-adv-x="786" d="M205 0v285h377v-348q0 -120 -72.5 -184t-210.5 -64h-86v170h23q75 0 110 17.5t35 57.5v66h-176z" />
<glyph unicode="-" horiz-adv-x="1187" d="M143 485v285h901v-285h-901z" />
<glyph unicode="." horiz-adv-x="786" d="M205 0v285h377v-285h-377z" />
<glyph unicode="/" horiz-adv-x="1220" d="M-111 -20l951 1503h362l-948 -1503h-365z" />
<glyph unicode="0" d="M166 735q0 236 145 432q119 159 294.5 246.5t377.5 87.5t377.5 -87t294.5 -245q147 -198 147 -434q0 -239 -145 -434q-117 -157 -292.5 -243.5t-379.5 -86.5t-379.5 87t-294.5 245q-145 192 -145 432zM494 735q0 -209 137 -342t352 -133q216 0 354 133.5t138 341.5 q0 211 -137.5 346.5t-352.5 135.5q-217 0 -354 -135t-137 -347z" />
<glyph unicode="1" horiz-adv-x="911" d="M70 1028v322q130 39 235 133h361v-1483h-359v1122z" />
<glyph unicode="2" horiz-adv-x="1812" d="M47 0q27 579 621 764q67 21 144 42t128.5 34t106 29t87.5 30t61.5 32t41 41t12.5 52q0 188 -356 188q-313 0 -582 -211l-215 216q197 144 393 214t408 70q314 0 508 -136.5t194 -350.5q0 -170 -111 -267t-355 -161q-43 -11 -120 -30t-118 -30t-103.5 -29.5t-102.5 -36.5 t-87 -43.5t-84 -58.5t-69 -73h1187v-285h-1589z" />
<glyph unicode="3" horiz-adv-x="1875" d="M43 303l211 197q132 -128 293 -186t373 -58t321 50.5t109 146.5q0 91 -106.5 125t-344.5 34h-258v281h311q330 0 330 156q0 73 -106.5 118t-294.5 45q-285 0 -545 -133l-139 221q318 201 723 201q325 0 512.5 -116.5t187.5 -305.5q0 -101 -42.5 -173t-137.5 -130v-6 q254 -105 254 -332q0 -217 -203.5 -339t-579.5 -122q-259 0 -468.5 78.5t-399.5 247.5z" />
<glyph unicode="4" horiz-adv-x="1763" d="M43 274v283l977 926h360v-924h316v-285h-316v-274h-360v274h-977zM416 559h604v569z" />
<glyph unicode="5" horiz-adv-x="1875" d="M51 307l258 168q140 -112 292 -164.5t331 -52.5q209 0 320.5 60.5t111.5 170.5q0 113 -122 167.5t-370 54.5q-286 0 -487 -101l-276 140l239 733h1239v-285h-1014l-114 -297q193 82 479 82q350 0 555 -137t205 -357q0 -227 -207 -369.5t-555 -142.5q-262 0 -476.5 79.5 t-408.5 250.5z" />
<glyph unicode="6" horiz-adv-x="1925" d="M143 735q0 257 152 447q123 154 308 238.5t403 84.5q425 0 731 -303l-199 -184q-102 102 -227 147t-291 45q-244 0 -387 -125t-154 -348q235 197 570 197t534 -127.5t199 -333.5q0 -225 -197 -361.5t-545 -136.5q-188 0 -349.5 51t-276.5 144q-271 218 -271 565zM557 467 q141 -207 475 -207q195 0 300.5 52.5t105.5 144.5q0 94 -102.5 144t-299.5 50q-141 0 -265 -48t-214 -136z" />
<glyph unicode="7" horiz-adv-x="1714" d="M23 1198v285h1599v-285l-1001 -1198h-418l1003 1198h-1183z" />
<glyph unicode="8" horiz-adv-x="1921" d="M121 432q0 108 73 198.5t212 151.5q-183 121 -183 285q0 202 191 317t542 115t541.5 -115t190.5 -317q0 -166 -183 -285q139 -61 212 -151.5t73 -198.5q0 -209 -220.5 -333t-617.5 -124q-395 0 -613 124t-218 333zM469 451q0 -84 124 -134t365 -57q238 7 361 57t123 134 q0 102 -116.5 147t-364.5 45q-252 0 -372 -45.5t-120 -146.5zM561 1038q0 -83 82.5 -120t255.5 -37h119q170 0 251 37.5t81 119.5q0 176 -400 176q-389 0 -389 -176z" />
<glyph unicode="9" horiz-adv-x="1908" d="M96 991q0 233 201.5 371.5t554.5 138.5q201 0 369.5 -56.5t284 -156.5t179.5 -240.5t64 -304.5q0 -252 -158 -446q-127 -155 -317 -239.5t-416 -84.5q-425 0 -708 283l215 180q191 -182 485 -182q234 0 380 121t169 334q-234 -174 -568 -174q-337 0 -536 127t-199 329z M438 1012q0 -193 363 -193q353 0 522 205q-146 186 -492 186q-191 0 -292 -52t-101 -146z" />
<glyph unicode=":" horiz-adv-x="786" d="M205 0v285h377v-285h-377zM205 684v285h377v-285h-377z" />
<glyph unicode=";" horiz-adv-x="796" d="M205 0v285h377v-348q0 -120 -72.5 -184t-210.5 -64h-86v170h23q75 0 110 17.5t35 57.5v66h-176zM205 684v285h377v-285h-377z" />
<glyph unicode="&#x3c;" d="M346 500v235l1276 549v-262l-989 -406v-4l989 -399v-264z" />
<glyph unicode="=" d="M352 248v246h1264v-246h-1264zM352 741v246h1264v-246h-1264z" />
<glyph unicode="&#x3e;" d="M346 -51v264l989 405v5l-989 397v264l1276 -551v-237z" />
<glyph unicode="?" horiz-adv-x="1601" d="M27 1182q175 162 358.5 240.5t388.5 78.5q337 0 526 -126.5t189 -344.5q0 -171 -112.5 -263t-352.5 -128q-72 -10 -112.5 -22t-75 -38.5t-49.5 -71t-19 -116.5h-213q-4 46 -4 72q0 151 56.5 249t174.5 150q40 18 129.5 43.5t130.5 40.5q91 35 91 105q0 80 -86 121.5 t-254 41.5q-156 0 -283 -54t-242 -169zM481 0v285h377v-285h-377z" />
<glyph unicode="@" horiz-adv-x="1742" d="M119 655q0 329 248 539q109 94 257 145.5t314 51.5q140 0 264 -45t217 -129q98 -89 151.5 -206.5t53.5 -246.5q0 -109 -41 -215q-56 -140 -177 -221.5t-276 -81.5q-122 0 -206 90q-89 -51 -179 -51q-118 0 -190 78t-72 208q0 237 168 379q103 86 232 86q67 0 139 -35 l20 31h201q-78 -210 -118 -351.5t-40 -188.5q0 -101 99 -101q97 0 162 96.5t65 257.5q0 218 -128 347t-345 129q-276 0 -440 -154.5t-164 -411.5q0 -278 148.5 -411t457.5 -133v-170h-94q-156 0 -289.5 51t-232.5 147q-205 199 -205 516zM680 543q0 -103 88 -103 q76 0 139.5 101.5t63.5 246.5q0 63 -18 91t-62 28q-80 0 -145.5 -107t-65.5 -257z" />
<glyph unicode="A" horiz-adv-x="2019" d="M0 0l788 1483h445l786 -1483h-364l-170 319h-950l-170 -319h-365zM682 604h651l-325 608z" />
<glyph unicode="B" horiz-adv-x="2240" d="M238 0v1483h1251q125 0 237.5 -47t186.5 -129q100 -109 100 -252q0 -92 -36.5 -160.5t-114.5 -124.5q229 -128 229 -344q0 -188 -152 -307t-409 -119h-1292zM598 285h903q108 0 165.5 41.5t57.5 117.5q0 79 -58.5 128t-158.5 49h-909v-336zM598 905h903q61 0 104.5 43 t43.5 107q0 63 -45 103t-117 40h-889v-293z" />
<glyph unicode="C" horiz-adv-x="2246" d="M164 745q0 327 256 539q141 117 334.5 180.5t414.5 63.5q300 0 533.5 -108t413.5 -330l-328 -117q-271 268 -647 268q-275 0 -447 -139.5t-172 -356.5q0 -222 177.5 -360.5t469.5 -138.5q188 0 340.5 67.5t282.5 208.5l305 -164q-183 -210 -401 -304.5t-510 -94.5 q-386 0 -697 191q-151 93 -238 251t-87 344z" />
<glyph unicode="D" horiz-adv-x="2293" d="M238 0v1483h995q411 0 654 -207.5t243 -550.5q0 -329 -264 -537q-113 -90 -264.5 -139t-319.5 -49h-1044zM598 285h659q117 0 225 51t177 139q92 119 92 256q0 203 -139 335t-357 132h-657v-913z" />
<glyph unicode="E" horiz-adv-x="2015" d="M238 0v1483h1607v-285h-1247v-303h866v-285h-866v-325h1305v-285h-1665z" />
<glyph unicode="F" horiz-adv-x="1947" d="M238 0v1483h1607v-285h-1247v-303h866v-285h-866v-610h-360z" />
<glyph unicode="G" horiz-adv-x="2336" d="M164 743q0 159 66 295.5t192 241.5q142 118 336.5 183t412.5 65q289 0 508.5 -90t356.5 -262l-375 -132q-186 195 -492 195q-286 0 -468.5 -141t-182.5 -355q0 -232 217 -376q181 -121 436 -121q222 0 395.5 86t248.5 225h-719v287h1118v-86q0 -341 -266 -557 q-143 -116 -343.5 -180t-433.5 -64q-223 0 -416.5 64t-334.5 182q-256 212 -256 540z" />
<glyph unicode="H" horiz-adv-x="2267" d="M238 0v1481h360v-541h1071v541h361v-1481h-361v637h-1071v-637h-360z" />
<glyph unicode="I" horiz-adv-x="835" d="M238 0v1483h360v-1483h-360z" />
<glyph unicode="J" horiz-adv-x="1710" d="M49 504h363q19 -128 93 -181t228 -53q200 0 289.5 54.5t89.5 189.5v969h361v-989q0 -256 -188.5 -396.5t-541.5 -140.5q-319 0 -494 139t-200 408z" />
<glyph unicode="K" horiz-adv-x="2144" d="M238 0v1483h360v-690l977 690h496l-822 -582l895 -901h-473l-694 711l-379 -267v-444h-360z" />
<glyph unicode="L" horiz-adv-x="1800" d="M238 0v1483h360v-1198h1141v-285h-1501z" />
<glyph unicode="M" horiz-adv-x="2621" d="M238 0v1483h421l652 -787l651 787h422v-1483h-361v1053h-6l-706 -850l-707 850h-6v-1053h-360z" />
<glyph unicode="N" horiz-adv-x="2269" d="M238 0v1483h419l1006 -1061h8v1061h361v-1483h-422l-1006 1059h-6v-1059h-360z" />
<glyph unicode="O" horiz-adv-x="2342" d="M164 743q0 327 256 539q142 118 336.5 182t414.5 64q221 0 416 -64.5t336 -181.5q256 -212 256 -539q0 -330 -256 -542q-141 -117 -335 -180.5t-419 -63.5q-224 0 -418 63.5t-333 180.5q-254 210 -254 542zM535 743q0 -226 171.5 -362.5t462.5 -136.5q293 0 466 136.5 t173 362.5q0 222 -174 360t-463 138q-288 0 -462 -138t-174 -360z" />
<glyph unicode="P" horiz-adv-x="2031" d="M238 0v1483h1214q253 0 406 -134t153 -352q0 -231 -145.5 -352t-427.5 -121h-840v-524h-360zM598 809h815q113 0 177.5 51t64.5 139q0 96 -63 147.5t-181 51.5h-813v-389z" />
<glyph unicode="Q" horiz-adv-x="2342" d="M164 745q0 328 258 539q141 117 335 181.5t414 64.5q221 0 416 -64.5t334 -181.5q258 -214 258 -539q0 -211 -107 -376t-317 -275l199 -209l-316 -94l-190 197q-151 -29 -279 -29q-224 0 -418 63.5t-333 180.5q-254 210 -254 542zM535 745q0 -226 171.5 -362.5 t462.5 -136.5h29l-168 174l322 90l182 -188q274 135 274 423q0 223 -174.5 361.5t-462.5 138.5t-462 -139t-174 -361z" />
<glyph unicode="R" horiz-adv-x="2156" d="M238 0v1483h1214q253 0 406 -134t153 -352q0 -175 -85.5 -287.5t-252.5 -158.5l377 -551h-405l-365 524h-682v-524h-360zM598 809h815q115 0 178.5 53t63.5 146q0 86 -65 138t-179 52h-813v-389z" />
<glyph unicode="S" horiz-adv-x="2095" d="M117 244l196 241q373 -229 783 -229q220 0 343.5 57t123.5 150q0 36 -20.5 61t-57 39t-95 22.5t-124.5 12.5t-156 8q-36 1 -55 2q-446 19 -654 119t-208 317q0 222 215 349t612 127q543 0 872 -217l-204 -238q-307 166 -652 166q-228 0 -348.5 -41.5t-120.5 -114.5 q0 -76 129 -106q62 -15 147.5 -21.5t207.5 -11.5t206 -12q360 -33 524.5 -134t164.5 -313q0 -243 -224 -377.5t-643 -134.5q-283 0 -517 66.5t-445 212.5z" />
<glyph unicode="T" horiz-adv-x="1896" d="M61 1198v285h1774v-285h-707v-1198h-360v1198h-707z" />
<glyph unicode="U" horiz-adv-x="2248" d="M211 500v983h360v-934q0 -139 142 -222t395 -83q252 0 394.5 83.5t142.5 221.5v934h360v-983q0 -239 -243.5 -391t-653.5 -152t-653.5 152t-243.5 391z" />
<glyph unicode="V" horiz-adv-x="2088" d="M0 1483h403l641 -1086l642 1086h403l-877 -1483h-335z" />
<glyph unicode="W" horiz-adv-x="2590" d="M41 1483h395l324 -1086h6l303 1086h455l301 -1086h6l326 1086h393l-510 -1483h-424l-318 1120h-8l-313 -1120h-424z" />
<glyph unicode="X" horiz-adv-x="2160" d="M27 0l811 752l-785 731h479l547 -514l549 514h479l-784 -731l811 -752h-479l-572 535l-577 -535h-479z" />
<glyph unicode="Y" horiz-adv-x="2121" d="M0 1483h457l604 -619l604 619h457l-881 -905v-578h-360v578z" />
<glyph unicode="Z" horiz-adv-x="1894" d="M92 0v285l1190 909v4h-1171v285h1650v-285l-1192 -907v-6h1248v-285h-1725z" />
<glyph unicode="[" horiz-adv-x="1019" d="M238 -289v1913h710v-139h-350v-1635h350v-139h-710z" />
<glyph unicode="\" horiz-adv-x="1089" d="M-111 1483h363l950 -1503h-364z" />
<glyph unicode="]" horiz-adv-x="1024" d="M66 -150h350v1635h-350v139h710v-1913h-710v139z" />
<glyph unicode="^" d="M313 629l555 829h238l549 -829h-305l-361 555h-6l-367 -555h-303z" />
<glyph unicode="_" horiz-adv-x="1024" d="M0 -279h1024v-204h-1024v204z" />
<glyph unicode="`" horiz-adv-x="1024" d="M246 1753h293l157 -381h-166z" />
<glyph unicode="a" horiz-adv-x="1806" d="M0 0l698 1260h410l698 -1260h-370l-146 260h-774l-145 -260h-371zM676 545h454l-227 416z" />
<glyph unicode="b" horiz-adv-x="1966" d="M205 0v1260h1089q113 0 213 -40.5t168 -111.5q92 -95 92 -223q0 -133 -106 -228q172 -112 172 -282q0 -165 -137 -270t-367 -105h-1124zM565 285h774q56 0 92.5 32.5t36.5 81.5q0 45 -37 76t-96 31h-770v-221zM565 770h719q55 0 88 27.5t33 70.5q0 45 -36.5 76t-92.5 31 h-711v-205z" />
<glyph unicode="c" horiz-adv-x="1945" d="M131 635q0 280 229 459q123 96 293 150t361 54q524 0 846 -395l-328 -112q-223 223 -514 223q-245 0 -387 -103.5t-142 -275.5q0 -169 144 -276t381 -107q309 0 524 231l305 -157q-286 -359 -829 -359q-193 0 -362.5 54t-293.5 151q-227 180 -227 463z" />
<glyph unicode="d" horiz-adv-x="1996" d="M205 0v1260h872q363 0 576 -178.5t213 -475.5q0 -278 -238 -454q-99 -72 -230 -112t-278 -40h-915zM565 285h533q164 0 278.5 96t114.5 229q0 156 -112 260.5t-283 104.5h-531v-690z" />
<glyph unicode="e" horiz-adv-x="1728" d="M188 0v1260h1368v-285h-1007v-205h684v-285h-684v-200h1057v-285h-1418z" />
<glyph unicode="f" horiz-adv-x="1675" d="M205 0v1260h1368v-285h-1008v-205h684v-285h-684v-485h-360z" />
<glyph unicode="g" horiz-adv-x="2052" d="M131 633q0 278 231 459q124 98 295 152t361 54q463 0 739 -258l-373 -133q-162 105 -352 105q-245 0 -395 -107.5t-150 -271.5q0 -163 149.5 -272t381.5 -109q396 0 534 221h-604v268h983v-96q0 -143 -60.5 -264.5t-176.5 -210.5q-127 -97 -301 -151t-375 -54 q-192 0 -362.5 54.5t-295.5 152.5q-229 179 -229 461z" />
<glyph unicode="h" horiz-adv-x="2029" d="M205 0v1260h360v-490h899v490h361v-1260h-361v485h-899v-485h-360z" />
<glyph unicode="i" horiz-adv-x="770" d="M205 0v1260h360v-1260h-360z" />
<glyph unicode="j" horiz-adv-x="1511" d="M41 432h360q10 -109 70 -149.5t195 -40.5q150 0 216 39t66 135v844h359v-836q0 -220 -168 -341.5t-480 -121.5q-292 0 -444 116t-174 355z" />
<glyph unicode="k" horiz-adv-x="1916" d="M205 0v1260h360v-539l795 539h514l-741 -502l784 -758h-477l-584 571l-291 -196v-375h-360z" />
<glyph unicode="l" horiz-adv-x="1605" d="M188 0v1260h361v-975h969v-285h-1330z" />
<glyph unicode="m" horiz-adv-x="2287" d="M205 0v1260h418l520 -627l522 627h418v-1260h-361v831h-6l-571 -679l-574 679h-6v-831h-360z" />
<glyph unicode="n" horiz-adv-x="1988" d="M205 0v1260h418l796 -832h4v832h361v-1260h-420l-793 831h-6v-831h-360z" />
<glyph unicode="o" horiz-adv-x="2029" d="M131 633q0 282 229 461q124 98 293.5 151t362.5 53q192 0 360.5 -53t292.5 -151q229 -179 229 -461q0 -286 -227 -463q-124 -97 -293.5 -151t-361.5 -54q-194 0 -364 54t-294 151q-227 177 -227 463zM500 633q0 -173 139.5 -279t376.5 -106q234 0 373 106t139 279 q0 169 -140.5 276t-371.5 107q-234 0 -375 -106.5t-141 -276.5z" />
<glyph unicode="p" horiz-adv-x="1837" d="M205 0v1260h1059q226 0 363.5 -117.5t137.5 -306.5q0 -202 -136 -315t-384 -113h-680v-408h-360zM565 692h666q82 0 130 41.5t48 108.5q0 62 -47 97.5t-133 35.5h-664v-283z" />
<glyph unicode="q" horiz-adv-x="2029" d="M131 635q0 282 229 461q126 98 295.5 152.5t360.5 54.5t360.5 -54t294.5 -153q227 -180 227 -461q0 -172 -88.5 -310t-261.5 -231l183 -180l-281 -92l-174 174q-139 -29 -260 -29q-194 0 -364 53.5t-294 151.5q-227 180 -227 463zM500 635q0 -172 133.5 -273t380.5 -110 l-131 127l293 88l147 -148q105 60 155 137t50 179q0 169 -141 276t-371 107q-233 0 -374.5 -107t-141.5 -276z" />
<glyph unicode="r" horiz-adv-x="1904" d="M205 0v1260h1059q226 0 363.5 -117.5t137.5 -306.5q0 -282 -264 -385l322 -451h-410l-297 408h-551v-408h-360zM565 692h666q82 0 130 41.5t48 108.5q0 61 -47.5 97t-132.5 36h-664v-283z" />
<glyph unicode="s" horiz-adv-x="1816" d="M63 217l187 225q283 -186 694 -186q181 0 277 32t96 87q0 54 -109 75t-397 43q-45 3 -68 5q-298 23 -449 120t-151 263q0 192 189 305.5t526 113.5q252 0 444.5 -46t344.5 -148l-170 -225q-296 131 -588 131q-180 0 -277.5 -33t-97.5 -88q0 -17 6 -30.5t20 -23.5 t30.5 -17t45.5 -12.5t55.5 -9t69.5 -7t80 -6.5t93.5 -7t103.5 -8q354 -30 518 -116t164 -253q0 -204 -196.5 -322t-557.5 -118q-250 0 -465.5 62t-417.5 194z" />
<glyph unicode="t" horiz-adv-x="1701" d="M72 975v285h1558v-285h-598v-975h-360v975h-600z" />
<glyph unicode="u" horiz-adv-x="1923" d="M172 430v830h360v-791q0 -104 111.5 -163.5t317.5 -59.5q207 0 318.5 59.5t111.5 163.5v791h360v-830q0 -208 -212.5 -338.5t-575.5 -130.5q-364 0 -577.5 130.5t-213.5 338.5z" />
<glyph unicode="v" horiz-adv-x="1869" d="M0 1260h406l528 -861l530 861h406l-776 -1260h-318z" />
<glyph unicode="w" horiz-adv-x="2324" d="M41 1260h393l277 -861h8l233 861h420l236 -861h6l276 861h394l-453 -1260h-420l-248 856h-4l-246 -856h-417z" />
<glyph unicode="x" horiz-adv-x="1984" d="M27 0l718 639l-694 621h484l458 -410l457 410h485l-696 -621l719 -639h-485l-480 426l-481 -426h-485z" />
<glyph unicode="y" horiz-adv-x="1935" d="M0 1260h457l514 -508l508 508h456l-786 -775v-485h-361v485z" />
<glyph unicode="z" horiz-adv-x="1693" d="M86 0v285l989 684v6h-975v285h1456v-285l-987 -684v-6h1035v-285h-1518z" />
<glyph unicode="{" horiz-adv-x="980" d="M88 668q65 33 103 65t56 76t22.5 84.5t4.5 114.5q0 28 -2 87t-2 87q0 130 22 211.5t78.5 135t147.5 74.5t234 21h143v-139h-14q-132 0 -190 -45.5t-58 -151.5q0 -32 1 -88t1 -82q0 -349 -135 -448v-6q137 -104 137 -449q0 -25 -2 -84t-2 -92q0 -103 55 -146t186 -43h21 v-139h-141q-482 0 -482 340v373q0 92 -42.5 148t-141.5 96z" />
<glyph unicode="|" horiz-adv-x="1120" d="M428 -481v2048h262v-2048h-262z" />
<glyph unicode="}" horiz-adv-x="1024" d="M100 -150h21q132 0 186.5 43.5t54.5 147.5q0 27 -2 86t-2 92q0 341 138 445v6q-138 101 -138 446q0 31 2 89t2 85q0 104 -58 149.5t-189 45.5h-15v139h144q144 0 234.5 -21.5t147 -75.5t78 -136t21.5 -213q0 -28 -2 -87t-2 -87q0 -48 1.5 -77.5t7.5 -64t18 -57t32.5 -48 t51.5 -46.5t75 -43q-99 -40 -141.5 -96t-42.5 -148v-373q0 -340 -481 -340h-142v139z" />
<glyph unicode="~" d="M287 598q88 96 182 146.5t233 50.5q132 0 302 -66q8 -3 48 -16.5t68.5 -22.5t69 -17.5t70.5 -8.5q39 0 76 13t70 37.5t55 44.5t48 48l170 -193q-91 -100 -190 -148t-232 -48q-146 0 -299 61q-3 1 -22 9t-24 10t-23.5 9t-26.5 9.5t-25 8t-27 8l-26 6.5t-28 5.5t-26.5 3 t-27.5 1.5q-38 0 -74 -12t-69 -37t-50.5 -40.5t-45.5 -43.5l-10 -10z" />
<glyph unicode="&#xa1;" horiz-adv-x="849" d="M205 0v166l121 926h200l119 -926v-166h-440zM236 1198v285h376v-285h-376z" />
<glyph unicode="&#xa2;" horiz-adv-x="1705" d="M158 737q0 190 137.5 322t398.5 186v238h318v-234q328 -52 536 -313l-284 -94q-102 104 -252 153v-520q155 47 258 162l264 -133q-208 -242 -522 -285v-219h-318v225q-261 52 -398.5 184.5t-137.5 327.5zM467 737q0 -92 57.5 -158.5t169.5 -99.5v514q-227 -65 -227 -256z " />
<glyph unicode="&#xa3;" horiz-adv-x="1724" d="M98 625v256h221q-30 65 -30 137q0 211 187 347t499 136q289 0 549 -139l-148 -244q-147 96 -346 96q-194 0 -280 -45.5t-86 -158.5q0 -56 30 -129h453v-256h-397v-25q0 -144 -70 -272h55q114 0 273 -14.5t204 -14.5q131 0 261 78l165 -293q-218 -102 -378 -102 q-78 0 -253 32.5t-268 32.5q-218 0 -411 -121l-217 324q144 81 212 162t68 180l-1 11q-1 11 -1 22h-291z" />
<glyph unicode="&#xa4;" horiz-adv-x="1466" d="M215 360q23 22 143 136q-67 115 -67 229q0 124 67 229q-20 21 -143 138q16 16 44.5 45t52 52.5t44.5 43.5q70 -67 142 -139q107 67 235 67q129 0 234 -67q94 94 143 139q27 -26 75 -75.5t64 -65.5q-21 -21 -143 -138q68 -108 68 -229q0 -117 -68 -229q23 -21 143 -136 q-16 -16 -64 -65.5t-75 -75.5q-28 26 -77.5 74.5t-65.5 64.5q-103 -67 -234 -67q-128 0 -235 67q-72 -72 -142 -139zM492 727q0 -99 71 -169.5t170 -70.5q100 0 171 71t71 169q0 100 -73.5 169t-168.5 69q-101 0 -171 -70.5t-70 -167.5z" />
<glyph unicode="&#xa5;" horiz-adv-x="2121" d="M0 1483h457l604 -619l604 619h457l-541 -555h225v-256h-473l-92 -94v-80h565v-256h-565v-242h-360v242h-564v256h564v80l-93 94h-471v256h224z" />
<glyph unicode="&#xa6;" horiz-adv-x="1120" d="M428 430h262v-911h-262v911zM428 674v893h262v-893h-262z" />
<glyph unicode="&#xa7;" horiz-adv-x="1882" d="M139 162l150 196q145 -104 303.5 -150t353.5 -46q178 0 281.5 41.5t103.5 105.5q0 83 -98 106t-362 33q-75 3 -115 5q-302 14 -439 91.5t-137 252.5q0 144 115 262q-115 97 -115 225q0 186 189.5 303t515.5 117q460 0 774 -195l-137 -239q-307 157 -703 157 q-274 0 -274 -116q0 -28 15.5 -47t43.5 -29.5t70.5 -15.5t94.5 -7.5t116 -3.5q63 -1 96 -2q374 -11 547.5 -103.5t173.5 -297.5q0 -132 -96 -234q96 -83 96 -202q0 -210 -211.5 -339.5t-579.5 -129.5q-270 0 -480 75.5t-292 186.5zM545 831q0 -53 101 -70.5t386 -33.5 q148 -8 234 -14q65 30 65 71q0 67 -146 97t-448 30q-192 0 -192 -80z" />
<glyph unicode="&#xa8;" horiz-adv-x="1024" d="M121 1546q0 64 45 109t108 45t108.5 -45.5t45.5 -108.5q0 -64 -44.5 -108.5t-109.5 -44.5q-64 0 -108.5 44.5t-44.5 108.5zM596 1546q0 64 45.5 109t108.5 45t108 -45.5t45 -108.5q0 -64 -44.5 -108.5t-108.5 -44.5q-65 0 -109.5 44.5t-44.5 108.5z" />
<glyph unicode="&#xa9;" horiz-adv-x="1705" d="M119 725q0 303 219 522q213 213 514 213q309 0 524 -215q211 -211 211 -520q0 -305 -211 -516q-107 -107 -241.5 -163t-282.5 -56q-299 0 -516 217t-217 518zM207 725q0 -265 190 -455t455 -190q271 0 463 192q186 186 186 453q0 130 -48.5 248.5t-139.5 210.5 q-188 188 -461 188q-267 0 -453 -186q-192 -192 -192 -461zM465 721q0 212 107.5 334.5t287.5 122.5q264 0 334 -267h-129q-55 164 -201 164q-122 0 -189 -90.5t-67 -261.5q0 -164 68 -254t188 -90q156 0 211 182h129q-35 -146 -122 -216.5t-232 -70.5q-176 0 -280.5 119.5 t-104.5 327.5z" />
<glyph unicode="&#xaa;" horiz-adv-x="1191" d="M-8 641l467 842h276l465 -842h-256l-96 172h-504l-96 -172h-256zM455 1012h282l-141 258z" />
<glyph unicode="&#xab;" horiz-adv-x="1802" d="M141 657l396 334h426l-377 -334l370 -331h-430zM840 657l395 334h426l-377 -334l371 -331h-428z" />
<glyph unicode="&#xac;" d="M352 580v245h1264v-587h-246v342h-1018z" />
<glyph unicode="&#xad;" horiz-adv-x="1187" d="M143 485v285h901v-285h-901z" />
<glyph unicode="&#xae;" horiz-adv-x="776" d="M72 1176q0 125 93 217t222 92q135 0 226.5 -91t91.5 -225q0 -130 -94 -222.5t-230 -92.5q-128 0 -218.5 93t-90.5 229zM121 1169q0 -114 77.5 -192t188.5 -78q114 0 192 78t78 192q0 113 -77 190t-193 77q-113 0 -189.5 -76.5t-76.5 -190.5zM264 997v342h121 q71 0 108 -26t37 -74q0 -64 -73 -90l75 -152h-81l-66 142h-49v-142h-72zM336 1186h49q68 0 68 49t-72 49h-45v-98z" />
<glyph unicode="&#xaf;" horiz-adv-x="1024" d="M141 1425v193h744v-193h-744z" />
<glyph unicode="&#xb0;" horiz-adv-x="1064" d="M162 1145q0 146 112 252q103 100 261 100q155 0 258 -100q112 -106 112 -252t-112 -252q-103 -100 -258 -100q-158 0 -261 100q-112 106 -112 252zM330 1145q0 -79 58.5 -135t143.5 -56t144 56t59 135q0 80 -59.5 137t-143.5 57t-143 -57t-59 -137z" />
<glyph unicode="&#xb1;" d="M354 0v246h1258v-246h-1258zM354 741v246h504v387h246v-387h508v-246h-508v-387h-246v387h-504z" />
<glyph unicode="&#xb2;" horiz-adv-x="1196" d="M31 590q18 348 409 459q56 16 129.5 33t111 26.5t75.5 23t53.5 31t15.5 41.5q0 113 -235 113q-206 0 -385 -127l-142 129q257 172 529 172q207 0 335 -82t128 -211q0 -102 -73 -160t-234 -96q-31 -8 -92 -21.5t-90.5 -21t-77 -22t-75.5 -29t-60 -37.5t-56 -51h782v-170 h-1048z" />
<glyph unicode="&#xb3;" horiz-adv-x="1239" d="M29 772l139 117q167 -146 438 -146q285 0 285 119q0 55 -69.5 74.5t-227.5 19.5h-170v170h205q217 0 217 93q0 44 -70.5 71t-193.5 27q-191 0 -361 -80l-92 133q212 121 477 121q215 0 339 -70t124 -184q0 -60 -28 -103.5t-91 -78.5v-2q168 -64 168 -201 q0 -130 -134 -203.5t-382 -73.5q-171 0 -309 47.5t-264 149.5z" />
<glyph unicode="&#xb4;" horiz-adv-x="1024" d="M334 1372l158 381h292l-284 -381h-166z" />
<glyph unicode="&#xb5;" horiz-adv-x="1249" d="M-63 -438l268 1530h289l-76 -435q-31 -167 -31 -268q0 -94 42 -139t128 -45q104 0 158.5 87t89.5 286l90 514h289l-193 -1092h-268l18 117q-42 -77 -93.5 -113.5t-121.5 -36.5q-132 0 -213 121l-90 -526h-286z" />
<glyph unicode="&#xb6;" horiz-adv-x="2121" d="M135 997q0 218 152.5 352t406.5 134h1153v-1821h-360v862h-230v-862h-360v862h-188q-282 0 -428 120.5t-146 352.5zM492 1008q0 -93 63 -146t178 -53h164v389h-162q-114 0 -178.5 -52t-64.5 -138zM1257 809h230v389h-230v-389z" />
<glyph unicode="&#xb7;" horiz-adv-x="993" d="M309 485v285h377v-285h-377z" />
<glyph unicode="&#xb8;" horiz-adv-x="1024" d="M242 -412l57 109q73 -29 125 -29q41 0 67.5 21t26.5 51q0 15 -11 26t-26 11q-27 0 -51 -41l-100 45l121 229h170l-62 -106q77 -22 114.5 -63.5t37.5 -108.5q0 -85 -66.5 -139t-177.5 -54q-97 0 -225 49z" />
<glyph unicode="&#xb9;" horiz-adv-x="602" d="M45 1206v193q92 25 156 80h239v-889h-237v674z" />
<glyph unicode="&#xba;" horiz-adv-x="1306" d="M82 1069q0 186 160 309t411 123q250 0 411 -123.5t161 -308.5q0 -188 -159 -311t-413 -123t-412.5 122.5t-158.5 311.5zM332 1069q0 -107 86.5 -172.5t234.5 -65.5t234 65.5t86 172.5q0 104 -87.5 170t-232.5 66t-233 -66t-88 -170z" />
<glyph unicode="&#xbb;" horiz-adv-x="1802" d="M141 991h426l396 -334l-388 -331h-428l371 331zM840 991h426l395 -334l-385 -331h-430l371 331z" />
<glyph unicode="&#xbc;" horiz-adv-x="2285" d="M29 -20l1327 1503h362l-1325 -1503h-364zM43 1223v180q79 19 150 74h227v-830h-227v629zM1200 154v157l617 518h227v-516h199v-159h-199v-154h-227v154h-617zM1436 313h381v320z" />
<glyph unicode="&#xbd;" horiz-adv-x="2316" d="M29 -20l1327 1503h362l-1325 -1503h-364zM43 1223v180q79 19 150 74h227v-830h-227v629zM1202 0q18 323 391 428q42 11 91 23t81.5 19t67 16t55 16.5t38.5 18t26 23.5t8 29q0 107 -223 107q-196 0 -367 -119l-135 121q244 158 504 158q198 0 320 -76.5t122 -196.5 q0 -95 -70 -148.5t-225 -90.5q-26 -6 -86.5 -19.5t-86.5 -20t-72.5 -20.5t-72.5 -27t-57.5 -34t-54.5 -47h748v-160h-1002z" />
<glyph unicode="&#xbe;" horiz-adv-x="2893" d="M27 817l133 111q161 -137 420 -137q270 0 270 110q0 50 -67 69t-216 19h-164v158h197q207 0 207 88q0 41 -66.5 66.5t-185.5 25.5q-179 0 -344 -76l-88 125q201 111 457 111q204 0 322 -65t118 -171q0 -57 -26.5 -96.5t-86.5 -73.5v-2q160 -59 160 -186q0 -122 -128 -190 t-366 -68q-162 0 -294.5 43.5t-251.5 138.5zM637 -20l1327 1503h363l-1326 -1503h-364zM1808 154v157l617 518h227v-516h199v-159h-199v-154h-227v154h-617zM2044 313h381v320z" />
<glyph unicode="&#xbf;" horiz-adv-x="1601" d="M113 453q0 173 114 264t359 129q56 8 89.5 16.5t66 25t49.5 42t28.5 65t14.5 97.5h213q1 -16 2 -33t1.5 -26.5t0.5 -12.5q0 -295 -232 -399q-41 -18 -129.5 -43t-130.5 -41q-90 -35 -90 -105q0 -80 86 -122t254 -42q155 0 281.5 54t242.5 170l242 -191 q-343 -319 -748 -319q-338 0 -526 126t-188 345zM743 1198v285h377v-285h-377z" />
<glyph unicode="&#xc0;" horiz-adv-x="2019" d="M0 0l788 1483h445l786 -1483h-364l-170 319h-950l-170 -319h-365zM682 604h651l-325 608zM743 1982h293l158 -380h-166z" />
<glyph unicode="&#xc1;" horiz-adv-x="2019" d="M0 0l788 1483h445l786 -1483h-364l-170 319h-950l-170 -319h-365zM682 604h651l-325 608zM831 1602l158 380h293l-285 -380h-166z" />
<glyph unicode="&#xc2;" horiz-adv-x="2019" d="M0 0l788 1483h445l786 -1483h-364l-170 319h-950l-170 -319h-365zM567 1597l353 381h180l352 -381h-264l-178 193l-179 -193h-264zM682 604h651l-325 608z" />
<glyph unicode="&#xc3;" horiz-adv-x="2019" d="M0 0l788 1483h445l786 -1483h-364l-170 319h-950l-170 -319h-365zM623 1724q81 96 137.5 139.5t113.5 43.5q54 0 143 -40t118 -40q27 0 47.5 22t60.5 82l141 -98q-99 -199 -237 -199q-48 0 -102 19t-96 38t-62 19q-27 0 -52 -26t-55 -82zM682 604h651l-325 608z" />
<glyph unicode="&#xc4;" horiz-adv-x="2019" d="M0 0l788 1483h445l786 -1483h-364l-170 319h-950l-170 -319h-365zM618 1776q0 64 45.5 108.5t108.5 44.5t108.5 -45t45.5 -108q0 -64 -45 -109t-109 -45t-109 45t-45 109zM682 604h651l-325 608zM1094 1776q0 64 45 108.5t108 44.5t108.5 -45t45.5 -108q0 -64 -44.5 -109 t-109.5 -45q-64 0 -108.5 44.5t-44.5 109.5z" />
<glyph unicode="&#xc5;" horiz-adv-x="2019" d="M0 0l788 1483h445l786 -1483h-364l-170 319h-950l-170 -319h-365zM682 604h651l-325 608zM758 1802q0 88 72 149.5t178 61.5q107 0 179.5 -62t72.5 -149t-72 -148t-180 -61t-179 60.5t-71 148.5zM905 1802q0 -31 29 -52t74 -21q43 0 72.5 21.5t29.5 51.5t-29.5 53 t-72.5 23q-44 0 -73.5 -22.5t-29.5 -53.5z" />
<glyph unicode="&#xc6;" horiz-adv-x="2963" d="M0 0l1077 1483h1716v-285h-1247v-303h867v-285h-867v-325h1305v-285h-1665v309h-580l-229 -309h-377zM809 594h377v518z" />
<glyph unicode="&#xc7;" horiz-adv-x="2246" d="M164 745q0 327 256 539q141 117 334.5 180.5t414.5 63.5q300 0 533.5 -108t413.5 -330l-328 -117q-268 268 -647 268q-275 0 -447 -139.5t-172 -356.5q0 -222 177.5 -360.5t469.5 -138.5q186 0 338.5 67.5t284.5 208.5l305 -164q-172 -198 -377.5 -294.5t-470.5 -102.5 l-35 -53q77 -22 114.5 -63.5t37.5 -108.5q0 -85 -66.5 -139t-177.5 -54q-100 0 -225 49l57 109q72 -29 125 -29q42 0 68.5 20.5t26.5 49.5q0 17 -11 28t-26 11q-31 0 -52 -41l-100 45l98 176q-437 41 -678 250.5t-241 533.5z" />
<glyph unicode="&#xc8;" horiz-adv-x="2015" d="M238 0v1483h1607v-285h-1247v-303h866v-285h-866v-325h1305v-285h-1665zM741 1982h293l158 -380h-166z" />
<glyph unicode="&#xc9;" horiz-adv-x="2015" d="M238 0v1483h1607v-285h-1247v-303h866v-285h-866v-325h1305v-285h-1665zM829 1602l158 380h293l-285 -380h-166z" />
<glyph unicode="&#xca;" horiz-adv-x="2015" d="M238 0v1483h1607v-285h-1247v-303h866v-285h-866v-325h1305v-285h-1665zM565 1597l353 381h180l352 -381h-264l-178 193l-179 -193h-264z" />
<glyph unicode="&#xcb;" horiz-adv-x="2015" d="M238 0v1483h1607v-285h-1247v-303h866v-285h-866v-325h1305v-285h-1665zM616 1776q0 64 45.5 108.5t108.5 44.5t108.5 -45t45.5 -108q0 -64 -45 -109t-109 -45t-109 45t-45 109zM1092 1776q0 64 45 108.5t108 44.5t108.5 -45t45.5 -108q0 -64 -44.5 -109t-109.5 -45 q-64 0 -108.5 44.5t-44.5 109.5z" />
<glyph unicode="&#xcc;" horiz-adv-x="835" d="M152 1982h292l158 -380h-166zM238 0v1483h360v-1483h-360z" />
<glyph unicode="&#xcd;" horiz-adv-x="835" d="M238 0v1483h360v-1483h-360zM240 1602l157 380h293l-284 -380h-166z" />
<glyph unicode="&#xce;" horiz-adv-x="835" d="M-25 1597l353 381h180l352 -381h-264l-178 193l-178 -193h-265zM238 0v1483h360v-1483h-360z" />
<glyph unicode="&#xcf;" horiz-adv-x="835" d="M27 1776q0 64 45 108.5t108 44.5t108.5 -45t45.5 -108q0 -64 -45 -109t-109 -45t-108.5 44.5t-44.5 109.5zM238 0v1483h360v-1483h-360zM502 1776q0 64 45 108.5t108 44.5t108.5 -45t45.5 -108q0 -64 -44.5 -109t-109.5 -45q-64 0 -108.5 44.5t-44.5 109.5z" />
<glyph unicode="&#xd0;" horiz-adv-x="2291" d="M86 604v285h150v594h995q411 0 654 -207.5t243 -550.5q0 -327 -266 -537q-113 -90 -263.5 -139t-318.5 -49h-1044v604h-150zM596 285h659q117 0 225 51t177 139q92 119 92 256q0 203 -139 335t-357 132h-657v-309h600v-285h-600v-319z" />
<glyph unicode="&#xd1;" horiz-adv-x="2269" d="M238 0v1483h419l1006 -1061h8v1061h361v-1483h-422l-1006 1059h-6v-1059h-360zM748 1724q81 96 137.5 139.5t113.5 43.5q54 0 143 -40t118 -40q27 0 47.5 22t60.5 82l141 -98q-99 -199 -237 -199q-48 0 -102 19t-96 38t-62 19q-27 0 -52 -26t-55 -82z" />
<glyph unicode="&#xd2;" horiz-adv-x="2342" d="M164 743q0 327 256 539q142 118 336.5 182t414.5 64q221 0 416 -64.5t336 -181.5q256 -212 256 -539q0 -330 -256 -542q-141 -117 -335 -180.5t-419 -63.5q-224 0 -418 63.5t-333 180.5q-254 210 -254 542zM535 743q0 -226 171.5 -362.5t462.5 -136.5q293 0 466 136.5 t173 362.5q0 222 -174 360t-463 138q-288 0 -462 -138t-174 -360zM905 1982h293l158 -380h-166z" />
<glyph unicode="&#xd3;" horiz-adv-x="2342" d="M164 743q0 327 256 539q142 118 336.5 182t414.5 64q221 0 416 -64.5t336 -181.5q256 -212 256 -539q0 -330 -256 -542q-141 -117 -335 -180.5t-419 -63.5q-224 0 -418 63.5t-333 180.5q-254 210 -254 542zM535 743q0 -226 171.5 -362.5t462.5 -136.5q293 0 466 136.5 t173 362.5q0 222 -174 360t-463 138q-288 0 -462 -138t-174 -360zM993 1602l158 380h293l-285 -380h-166z" />
<glyph unicode="&#xd4;" horiz-adv-x="2342" d="M164 743q0 327 256 539q142 118 336.5 182t414.5 64q221 0 416 -64.5t336 -181.5q256 -212 256 -539q0 -330 -256 -542q-141 -117 -335 -180.5t-419 -63.5q-224 0 -418 63.5t-333 180.5q-254 210 -254 542zM535 743q0 -226 171.5 -362.5t462.5 -136.5q293 0 466 136.5 t173 362.5q0 222 -174 360t-463 138q-288 0 -462 -138t-174 -360zM729 1597l352 381h181l352 -381h-264l-179 193l-178 -193h-264z" />
<glyph unicode="&#xd5;" horiz-adv-x="2342" d="M164 743q0 327 256 539q142 118 336.5 182t414.5 64q221 0 416 -64.5t336 -181.5q256 -212 256 -539q0 -330 -256 -542q-141 -117 -335 -180.5t-419 -63.5q-224 0 -418 63.5t-333 180.5q-254 210 -254 542zM535 743q0 -226 171.5 -362.5t462.5 -136.5q293 0 466 136.5 t173 362.5q0 222 -174 360t-463 138q-288 0 -462 -138t-174 -360zM784 1724q80 96 137.5 139.5t114.5 43.5q54 0 142.5 -40t117.5 -40q27 0 48.5 22.5t60.5 81.5l141 -98q-99 -199 -237 -199q-48 0 -102 19t-96 38t-62 19q-27 0 -52 -26t-55 -82z" />
<glyph unicode="&#xd6;" horiz-adv-x="2342" d="M164 743q0 327 256 539q142 118 336.5 182t414.5 64q221 0 416 -64.5t336 -181.5q256 -212 256 -539q0 -330 -256 -542q-141 -117 -335 -180.5t-419 -63.5q-224 0 -418 63.5t-333 180.5q-254 210 -254 542zM535 743q0 -226 171.5 -362.5t462.5 -136.5q293 0 466 136.5 t173 362.5q0 222 -174 360t-463 138q-288 0 -462 -138t-174 -360zM780 1776q0 64 45.5 108.5t108.5 44.5t108 -45t45 -108q0 -65 -44.5 -109.5t-108.5 -44.5t-109 45t-45 109zM1255 1776q0 64 45.5 108.5t108.5 44.5t108.5 -45t45.5 -108q0 -64 -44.5 -109t-109.5 -45 t-109.5 45t-44.5 109z" />
<glyph unicode="&#xd7;" d="M389 1030l170 178l428 -417l424 419l166 -182l-418 -414l412 -409l-174 -172l-410 411l-407 -409l-177 176l408 403z" />
<glyph unicode="&#xd8;" horiz-adv-x="2342" d="M164 743q0 160 65.5 298.5t190.5 240.5q142 118 336.5 182t414.5 64q218 0 445 -76l117 141h217l-174 -213q403 -230 403 -637q0 -330 -256 -542q-139 -116 -334.5 -180t-419.5 -64q-247 0 -491 92l-113 -139h-219l178 215q-360 221 -360 618zM535 743 q0 -118 45.5 -207.5t144.5 -166.5q536 651 690 839q-118 33 -244 33q-288 0 -462 -138t-174 -360zM877 291q134 -47 292 -47q293 0 466 136.5t173 362.5q0 127 -56 223.5t-175 174.5z" />
<glyph unicode="&#xd9;" horiz-adv-x="2248" d="M211 500v983h360v-934q0 -139 142 -222t395 -83q252 0 394.5 83.5t142.5 221.5v934h360v-983q0 -239 -243.5 -391t-653.5 -152t-653.5 152t-243.5 391zM858 1982h293l158 -380h-166z" />
<glyph unicode="&#xda;" horiz-adv-x="2248" d="M211 500v983h360v-934q0 -139 142 -222t395 -83q252 0 394.5 83.5t142.5 221.5v934h360v-983q0 -239 -243.5 -391t-653.5 -152t-653.5 152t-243.5 391zM946 1602l158 380h293l-285 -380h-166z" />
<glyph unicode="&#xdb;" horiz-adv-x="2248" d="M211 500v983h360v-934q0 -139 142 -222t395 -83q252 0 394.5 83.5t142.5 221.5v934h360v-983q0 -239 -243.5 -391t-653.5 -152t-653.5 152t-243.5 391zM682 1597l352 381h180l353 -381h-264l-179 193l-178 -193h-264z" />
<glyph unicode="&#xdc;" horiz-adv-x="2248" d="M211 500v983h360v-934q0 -139 142 -222t395 -83q252 0 394.5 83.5t142.5 221.5v934h360v-983q0 -239 -243.5 -391t-653.5 -152t-653.5 152t-243.5 391zM733 1776q0 64 45.5 108.5t108.5 44.5t108 -45t45 -108q0 -65 -44.5 -109.5t-108.5 -44.5q-65 0 -109.5 45t-44.5 109 zM1208 1776q0 64 45.5 108.5t108.5 44.5t108.5 -45t45.5 -108q0 -64 -45 -109t-109 -45t-109 45t-45 109z" />
<glyph unicode="&#xdd;" horiz-adv-x="2121" d="M0 1483h457l604 -619l604 619h457l-881 -905v-578h-360v578zM883 1602l157 380h293l-284 -380h-166z" />
<glyph unicode="&#xde;" horiz-adv-x="2031" d="M238 0v1483h360v-223h854q253 0 406 -134t153 -352q0 -231 -145.5 -352t-427.5 -121h-840v-301h-360zM598 586h815q115 0 178.5 51t63.5 139q0 96 -63 147.5t-181 51.5h-813v-389z" />
<glyph unicode="&#xdf;" horiz-adv-x="3549" d="M63 217l187 225q283 -186 694 -186q181 0 277 32t96 87q0 54 -109 75t-397 43q-45 3 -68 5q-298 23 -449 120t-151 263q0 192 189 305.5t526 113.5q252 0 444.5 -46t344.5 -148l-170 -225q-296 131 -588 131q-180 0 -277.5 -33t-97.5 -88q0 -17 6 -30.5t20 -23.5 t30.5 -17t45.5 -12.5t55.5 -9t69.5 -7t80 -6.5t93.5 -7t103.5 -8q354 -30 518 -116t164 -253q0 -204 -196.5 -322t-557.5 -118q-250 0 -465.5 62t-417.5 194zM1794 217l188 225q283 -186 693 -186q181 0 277.5 32t96.5 87q0 54 -109.5 75t-396.5 43q-45 3 -69 5 q-298 23 -449 120t-151 263q0 195 194 307t547 112q477 0 764 -194l-170 -225q-296 131 -588 131q-180 0 -277 -33t-97 -88q0 -17 6 -30.5t20.5 -23.5t31 -17t45.5 -12.5t56 -9t69.5 -7t80 -6.5t94 -7t103.5 -8q353 -30 516 -116.5t163 -252.5q0 -204 -196 -322t-557 -118 q-250 0 -466.5 62t-418.5 194z" />
<glyph unicode="&#xe0;" horiz-adv-x="1806" d="M0 0l698 1260h410l698 -1260h-370l-146 260h-774l-145 -260h-371zM637 1753h293l157 -381h-165zM676 545h454l-227 416z" />
<glyph unicode="&#xe1;" horiz-adv-x="1806" d="M0 0l698 1260h410l698 -1260h-370l-146 260h-774l-145 -260h-371zM676 545h454l-227 416zM725 1372l158 381h293l-285 -381h-166z" />
<glyph unicode="&#xe2;" horiz-adv-x="1806" d="M0 0l698 1260h410l698 -1260h-370l-146 260h-774l-145 -260h-371zM461 1368l352 381h180l353 -381h-265l-178 193l-178 -193h-264zM676 545h454l-227 416z" />
<glyph unicode="&#xe3;" horiz-adv-x="1806" d="M0 0l698 1260h410l698 -1260h-370l-146 260h-774l-145 -260h-371zM516 1495q80 95 137.5 138.5t114.5 43.5q54 0 142.5 -40t117.5 -40q27 0 48 22.5t61 82.5l141 -98q-99 -199 -238 -199q-48 0 -102 19t-96 38t-62 19q-27 0 -51 -26t-55 -83zM676 545h454l-227 416z" />
<glyph unicode="&#xe4;" horiz-adv-x="1806" d="M0 0l698 1260h410l698 -1260h-370l-146 260h-774l-145 -260h-371zM512 1546q0 64 45.5 109t108.5 45t108 -45.5t45 -108.5q0 -64 -44.5 -108.5t-108.5 -44.5q-65 0 -109.5 44.5t-44.5 108.5zM676 545h454l-227 416zM987 1546q0 64 45.5 109t108.5 45t108 -45.5t45 -108.5 q0 -64 -44 -108.5t-109 -44.5t-109.5 44.5t-44.5 108.5z" />
<glyph unicode="&#xe5;" horiz-adv-x="1806" d="M0 0l698 1260h410l698 -1260h-370l-146 260h-774l-145 -260h-371zM655 1579q0 88 72 149.5t178 61.5q107 0 179.5 -62t72.5 -149t-71.5 -148t-180.5 -61q-108 0 -179 60.5t-71 148.5zM676 545h454l-227 416zM803 1579q0 -30 28 -52t72 -22q42 0 72.5 22t30.5 52t-30.5 53 t-72.5 23q-43 0 -71.5 -23t-28.5 -53z" />
<glyph unicode="&#xe6;" horiz-adv-x="2588" d="M0 0l977 1260h1440v-285h-1008v-205h684v-285h-684v-200h1057v-285h-1417v213h-529l-164 -213h-356zM743 498h306v395z" />
<glyph unicode="&#xe7;" horiz-adv-x="1945" d="M131 635q0 280 229 459q123 96 293 150t361 54q266 0 475 -97t371 -298l-328 -112q-217 223 -514 223q-245 0 -387 -103.5t-142 -275.5q0 -169 144 -276t381 -107q312 0 524 231l305 -157q-262 -330 -735 -357l-37 -65q77 -22 114.5 -63.5t37.5 -108.5q0 -85 -66.5 -139 t-177.5 -54q-97 0 -225 49l57 109q73 -29 125 -29q41 0 67.5 21t26.5 51q0 15 -11 26t-26 11q-27 0 -51 -41l-100 45l98 188q-385 35 -597 213t-212 453z" />
<glyph unicode="&#xe8;" horiz-adv-x="1728" d="M188 0v1260h1368v-285h-1007v-205h684v-285h-684v-200h1057v-285h-1418zM598 1753h293l158 -381h-166z" />
<glyph unicode="&#xe9;" horiz-adv-x="1728" d="M188 0v1260h1368v-285h-1007v-205h684v-285h-684v-200h1057v-285h-1418zM686 1372l158 381h293l-285 -381h-166z" />
<glyph unicode="&#xea;" horiz-adv-x="1728" d="M188 0v1260h1368v-285h-1007v-205h684v-285h-684v-200h1057v-285h-1418zM422 1368l352 381h180l353 -381h-265l-178 193l-178 -193h-264z" />
<glyph unicode="&#xeb;" horiz-adv-x="1728" d="M188 0v1260h1368v-285h-1007v-205h684v-285h-684v-200h1057v-285h-1418zM473 1546q0 64 45.5 109t108.5 45t108 -45.5t45 -108.5q0 -64 -44 -108.5t-109 -44.5t-109.5 44.5t-44.5 108.5zM948 1546q0 64 45.5 109t108.5 45t108 -45.5t45 -108.5q0 -64 -44.5 -108.5 t-108.5 -44.5q-65 0 -109.5 44.5t-44.5 108.5z" />
<glyph unicode="&#xec;" horiz-adv-x="770" d="M119 1753h293l157 -381h-166zM205 0v1260h360v-1260h-360z" />
<glyph unicode="&#xed;" horiz-adv-x="770" d="M205 0v1260h360v-1260h-360zM207 1372l158 381h292l-284 -381h-166z" />
<glyph unicode="&#xee;" horiz-adv-x="770" d="M-57 1368l352 381h180l352 -381h-264l-178 193l-178 -193h-264zM205 0v1260h360v-1260h-360z" />
<glyph unicode="&#xef;" horiz-adv-x="770" d="M-6 1546q0 64 45 109t108 45t108.5 -45.5t45.5 -108.5q0 -64 -44.5 -108.5t-109.5 -44.5t-109 44.5t-44 108.5zM205 0v1260h360v-1260h-360zM469 1546q0 64 45.5 109t108.5 45t108 -45.5t45 -108.5q0 -64 -44 -108.5t-109 -44.5t-109.5 44.5t-44.5 108.5z" />
<glyph unicode="&#xf0;" horiz-adv-x="1996" d="M111 489v285h94v486h872q363 0 576 -178.5t213 -475.5q0 -278 -238 -454q-99 -72 -230 -112t-278 -40h-915v489h-94zM565 285h533q164 0 278.5 96t114.5 229q0 156 -112 260.5t-283 104.5h-531v-201h500v-285h-500v-204z" />
<glyph unicode="&#xf1;" horiz-adv-x="1988" d="M205 0v1260h418l796 -832h4v832h361v-1260h-420l-793 831h-6v-831h-360zM608 1495q80 95 137.5 138.5t114.5 43.5q54 0 142.5 -40t117.5 -40q27 0 48 22.5t61 82.5l141 -98q-99 -199 -237 -199q-48 0 -102 19t-96.5 38t-62.5 19q-27 0 -51 -26t-55 -83z" />
<glyph unicode="&#xf2;" horiz-adv-x="2029" d="M131 633q0 282 229 461q124 98 293.5 151t362.5 53q192 0 360.5 -53t292.5 -151q229 -179 229 -461q0 -286 -227 -463q-124 -97 -293.5 -151t-361.5 -54q-194 0 -364 54t-294 151q-227 177 -227 463zM500 633q0 -173 139.5 -279t376.5 -106q234 0 373 106t139 279 q0 169 -140.5 276t-371.5 107q-234 0 -375 -106.5t-141 -276.5zM750 1753h292l158 -381h-166z" />
<glyph unicode="&#xf3;" horiz-adv-x="2029" d="M131 633q0 282 229 461q124 98 293.5 151t362.5 53q192 0 360.5 -53t292.5 -151q229 -179 229 -461q0 -286 -227 -463q-124 -97 -293.5 -151t-361.5 -54q-194 0 -364 54t-294 151q-227 177 -227 463zM500 633q0 -173 139.5 -279t376.5 -106q234 0 373 106t139 279 q0 169 -140.5 276t-371.5 107q-234 0 -375 -106.5t-141 -276.5zM838 1372l157 381h293l-284 -381h-166z" />
<glyph unicode="&#xf4;" horiz-adv-x="2029" d="M131 633q0 282 229 461q124 98 293.5 151t362.5 53q192 0 360.5 -53t292.5 -151q229 -179 229 -461q0 -286 -227 -463q-124 -97 -293.5 -151t-361.5 -54q-194 0 -364 54t-294 151q-227 177 -227 463zM500 633q0 -173 139.5 -279t376.5 -106q234 0 373 106t139 279 q0 169 -140.5 276t-371.5 107q-234 0 -375 -106.5t-141 -276.5zM573 1368l353 381h180l352 -381h-264l-178 193l-178 -193h-265z" />
<glyph unicode="&#xf5;" horiz-adv-x="2029" d="M131 633q0 282 229 461q124 98 293.5 151t362.5 53q192 0 360.5 -53t292.5 -151q229 -179 229 -461q0 -286 -227 -463q-124 -97 -293.5 -151t-361.5 -54q-194 0 -364 54t-294 151q-227 177 -227 463zM500 633q0 -173 139.5 -279t376.5 -106q234 0 373 106t139 279 q0 169 -140.5 276t-371.5 107q-234 0 -375 -106.5t-141 -276.5zM629 1495q80 95 137.5 138.5t114.5 43.5q54 0 142.5 -40t117.5 -40q27 0 47.5 22t60.5 83l142 -98q-99 -199 -238 -199q-48 0 -102 19t-96 38t-62 19q-27 0 -51.5 -26.5t-55.5 -82.5z" />
<glyph unicode="&#xf6;" horiz-adv-x="2029" d="M131 633q0 282 229 461q124 98 293.5 151t362.5 53q192 0 360.5 -53t292.5 -151q229 -179 229 -461q0 -286 -227 -463q-124 -97 -293.5 -151t-361.5 -54q-194 0 -364 54t-294 151q-227 177 -227 463zM500 633q0 -173 139.5 -279t376.5 -106q234 0 373 106t139 279 q0 169 -140.5 276t-371.5 107q-234 0 -375 -106.5t-141 -276.5zM625 1546q0 64 45 109t108 45t108.5 -45.5t45.5 -108.5q0 -64 -44.5 -108.5t-109.5 -44.5q-64 0 -108.5 44.5t-44.5 108.5zM1100 1546q0 64 45 109t108 45t108.5 -45.5t45.5 -108.5q0 -64 -44.5 -108.5 t-109.5 -44.5t-109 44.5t-44 108.5z" />
<glyph unicode="&#xf7;" d="M354 494v245h1258v-245h-1258zM821 186q0 68 45 116t117 48q71 0 114.5 -46t43.5 -116q0 -72 -47 -114.5t-111 -42.5q-66 0 -114 45.5t-48 109.5zM821 1040q0 67 45.5 115.5t116.5 48.5t114.5 -46.5t43.5 -115.5q0 -73 -47 -116t-111 -43q-66 0 -114 46.5t-48 110.5z" />
<glyph unicode="&#xf8;" horiz-adv-x="2029" d="M131 633q0 282 229 461q124 98 293.5 151t362.5 53q195 0 387 -63l74 86h202l-127 -152q346 -192 346 -536q0 -286 -227 -463q-124 -97 -293.5 -151t-361.5 -54q-207 0 -408 70l-106 -127h-203l162 192q-330 191 -330 533zM500 633q0 -93 38 -163t121 -128l541 649 q-98 25 -184 25q-234 0 -375 -106.5t-141 -276.5zM809 276q112 -28 207 -28q234 0 373 106t139 279q0 95 -42 166.5t-132 130.5z" />
<glyph unicode="&#xf9;" horiz-adv-x="1923" d="M172 430v830h360v-791q0 -104 111.5 -163.5t317.5 -59.5q207 0 318.5 59.5t111.5 163.5v791h360v-830q0 -208 -212.5 -338.5t-575.5 -130.5q-364 0 -577.5 130.5t-213.5 338.5zM696 1753h293l158 -381h-166z" />
<glyph unicode="&#xfa;" horiz-adv-x="1923" d="M172 430v830h360v-791q0 -104 111.5 -163.5t317.5 -59.5q207 0 318.5 59.5t111.5 163.5v791h360v-830q0 -208 -212.5 -338.5t-575.5 -130.5q-364 0 -577.5 130.5t-213.5 338.5zM784 1372l158 381h293l-285 -381h-166z" />
<glyph unicode="&#xfb;" horiz-adv-x="1923" d="M172 430v830h360v-791q0 -104 111.5 -163.5t317.5 -59.5q207 0 318.5 59.5t111.5 163.5v791h360v-830q0 -208 -212.5 -338.5t-575.5 -130.5q-364 0 -577.5 130.5t-213.5 338.5zM520 1368l352 381h181l352 -381h-264l-178 193l-179 -193h-264z" />
<glyph unicode="&#xfc;" horiz-adv-x="1923" d="M172 430v830h360v-791q0 -104 111.5 -163.5t317.5 -59.5q207 0 318.5 59.5t111.5 163.5v791h360v-830q0 -208 -212.5 -338.5t-575.5 -130.5q-364 0 -577.5 130.5t-213.5 338.5zM571 1546q0 64 45.5 109t108.5 45t108.5 -45.5t45.5 -108.5q0 -64 -44.5 -108.5 t-109.5 -44.5t-109.5 44.5t-44.5 108.5zM1047 1546q0 64 45 109t108 45t108.5 -45.5t45.5 -108.5q0 -64 -44.5 -108.5t-109.5 -44.5q-64 0 -108.5 44.5t-44.5 108.5z" />
<glyph unicode="&#xfd;" horiz-adv-x="1935" d="M0 1260h457l514 -508l508 508h456l-786 -775v-485h-361v485zM791 1372l157 381h293l-285 -381h-165z" />
<glyph unicode="&#xfe;" horiz-adv-x="1837" d="M205 0v1260h360v-130h699q226 0 363.5 -117t137.5 -306q0 -202 -136 -315t-384 -113h-680v-279h-360zM565 563h666q82 0 130 41.5t48 108.5q0 62 -47 97.5t-133 35.5h-664v-283z" />
<glyph unicode="&#xff;" horiz-adv-x="1935" d="M0 1260h457l514 -508l508 508h456l-786 -775v-485h-361v485zM578 1546q0 64 45 109t108 45t108.5 -45.5t45.5 -108.5q0 -64 -44.5 -108.5t-109.5 -44.5t-109 44.5t-44 108.5zM1053 1546q0 64 45 109t108 45t108.5 -45.5t45.5 -108.5q0 -64 -44.5 -108.5t-109.5 -44.5 q-64 0 -108.5 44.5t-44.5 108.5z" />
<glyph unicode="&#x152;" horiz-adv-x="3174" d="M102 739q0 313 248 514q138 110 324 170t399 60h1931v-285h-1247v-303h866v-285h-866v-325h1305v-285h-1983q-218 0 -405 58t-322 165q-250 197 -250 516zM469 739q0 -207 162 -330.5t444 -123.5h182q65 0 102.5 24.5t37.5 63.5v733q0 39 -41.5 65.5t-110.5 26.5h-172 q-271 0 -437.5 -128.5t-166.5 -330.5z" />
<glyph unicode="&#x153;" horiz-adv-x="2772" d="M131 629q0 265 217 436q120 93 280.5 144t342.5 51h1630v-285h-1008v-205h684v-285h-684v-200h1057v-285h-1673q-189 0 -348 47.5t-268 131t-169.5 199.5t-60.5 251zM494 629q0 -165 122.5 -254.5t354.5 -89.5h172q38 0 64 31.5t26 82.5v451q0 53 -32.5 89t-76.5 36h-153 q-224 0 -350.5 -93t-126.5 -253z" />
<glyph unicode="&#x178;" horiz-adv-x="2121" d="M0 1483h457l604 -619l604 619h457l-881 -905v-578h-360v578zM670 1776q0 64 45 108.5t108 44.5t108.5 -45t45.5 -108q0 -64 -44.5 -109t-109.5 -45q-64 0 -108.5 44.5t-44.5 109.5zM1145 1776q0 64 45 108.5t108 44.5t108.5 -45t45.5 -108q0 -64 -45 -109t-109 -45 t-108.5 44.5t-44.5 109.5z" />
<glyph unicode="&#x2c6;" horiz-adv-x="1024" d="M70 1368l352 381h180l352 -381h-264l-178 193l-178 -193h-264z" />
<glyph unicode="&#x2dc;" horiz-adv-x="1024" d="M125 1495q80 95 137.5 138.5t114.5 43.5q54 0 142.5 -40t117.5 -40q27 0 47.5 22t60.5 83l142 -98q-99 -199 -238 -199q-48 0 -102 19t-96 38t-62 19q-27 0 -51 -26t-55 -83z" />
<glyph unicode="&#x2000;" horiz-adv-x="1006" />
<glyph unicode="&#x2001;" horiz-adv-x="2013" />
<glyph unicode="&#x2002;" horiz-adv-x="1006" />
<glyph unicode="&#x2003;" horiz-adv-x="2013" />
<glyph unicode="&#x2004;" horiz-adv-x="671" />
<glyph unicode="&#x2005;" horiz-adv-x="503" />
<glyph unicode="&#x2006;" horiz-adv-x="335" />
<glyph unicode="&#x2007;" horiz-adv-x="335" />
<glyph unicode="&#x2008;" horiz-adv-x="251" />
<glyph unicode="&#x2009;" horiz-adv-x="402" />
<glyph unicode="&#x200a;" horiz-adv-x="111" />
<glyph unicode="&#x2010;" horiz-adv-x="1187" d="M143 485v285h901v-285h-901z" />
<glyph unicode="&#x2011;" horiz-adv-x="1187" d="M143 485v285h901v-285h-901z" />
<glyph unicode="&#x2012;" horiz-adv-x="1187" d="M143 485v285h901v-285h-901z" />
<glyph unicode="&#x2013;" horiz-adv-x="1859" d="M143 485v285h1573v-285h-1573z" />
<glyph unicode="&#x2014;" horiz-adv-x="2164" d="M143 485v285h1878v-285h-1878z" />
<glyph unicode="&#x2018;" horiz-adv-x="655" d="M123 887v348q0 120 73 184t210 64h86v-170h-25q-75 0 -109 -17.5t-34 -58.5v-66h176v-284h-377z" />
<glyph unicode="&#x2019;" horiz-adv-x="622" d="M123 1198v285h377v-348q0 -120 -72.5 -184t-210.5 -64h-86v170h23q75 0 110 17.5t35 58.5v65h-176z" />
<glyph unicode="&#x201a;" horiz-adv-x="786" d="M205 0v285h377v-348q0 -120 -72.5 -184t-210.5 -64h-86v170h23q75 0 110 17.5t35 57.5v66h-176z" />
<glyph unicode="&#x201c;" horiz-adv-x="1193" d="M123 887v348q0 120 73 184t210 64h86v-170h-25q-75 0 -109 -17.5t-34 -58.5v-66h176v-284h-377zM662 887v348q0 120 72 184t210 64h86v-170h-22q-75 0 -110.5 -17.5t-35.5 -58.5v-66h176v-284h-376z" />
<glyph unicode="&#x201d;" horiz-adv-x="1161" d="M123 1198v285h377v-348q0 -120 -72.5 -184t-210.5 -64h-86v170h23q75 0 110 17.5t35 58.5v65h-176zM662 1198v285h376v-348q0 -120 -72 -184t-210 -64h-86v170h24q75 0 109.5 17.5t34.5 58.5v65h-176z" />
<glyph unicode="&#x201e;" horiz-adv-x="1325" d="M205 0v285h377v-348q0 -120 -72.5 -184t-210.5 -64h-86v170h23q75 0 110 17.5t35 57.5v66h-176zM743 0v285h377v-348q0 -120 -72 -184t-210 -64h-86v170h24q75 0 109.5 17.5t34.5 57.5v66h-177z" />
<glyph unicode="&#x2022;" horiz-adv-x="1064" d="M162 739q0 146 112 252q104 101 261 101q154 0 258 -101q112 -106 112 -252t-112 -252q-103 -100 -258 -100q-158 0 -261 100q-112 106 -112 252z" />
<glyph unicode="&#x2026;" horiz-adv-x="2048" d="M152 0v285h376v-285h-376zM836 0v285h376v-285h-376zM1520 0v285h376v-285h-376z" />
<glyph unicode="&#x202f;" horiz-adv-x="402" />
<glyph unicode="&#x2039;" horiz-adv-x="1097" d="M139 657l393 334h426l-374 -334l370 -331h-430z" />
<glyph unicode="&#x203a;" horiz-adv-x="1097" d="M139 991h426l393 -334l-385 -331h-430l371 331z" />
<glyph unicode="&#x205f;" horiz-adv-x="503" />
<glyph unicode="&#x20ac;" horiz-adv-x="2009" d="M49 481v211h193q0 7 -1 22.5t-1 22.5q0 46 2 66h-193v211h244q63 153 192.5 265t293.5 167t345 55q271 0 475 -95.5t359 -307.5l-289 -115q-76 84 -150 133t-176.5 75t-242.5 26q-139 0 -254 -54.5t-187 -148.5h603v-211h-691q-4 -40 -4 -66q0 -31 2 -45h693v-211h-619 q70 -106 196 -166.5t285 -60.5q180 0 308 56t241 192l264 -166q-173 -208 -350.5 -286.5t-447.5 -78.5q-191 0 -361 56t-303 173t-192 281h-234z" />
<glyph unicode="&#x2122;" horiz-adv-x="837" d="M20 1395v67h293v-67h-104v-273h-84v273h-105zM381 1122v340h119l80 -205l73 205h117v-340h-80v256l-94 -256h-37l-96 256v-256h-82z" />
<glyph unicode="&#x25fc;" horiz-adv-x="1259" d="M0 0v1260h1260v-1260h-1260z" />
</font>
</defs>
</svg>
