<?xml version="1.0" standalone="no"?>
<!DOCTYPE svg PUBLIC "-//W3C//DTD SVG 1.1//EN" "http://www.w3.org/Graphics/SVG/1.1/DTD/svg11.dtd" >
<svg xmlns="http://www.w3.org/2000/svg">
<metadata></metadata>
<defs>
<font id="tonyblair_stdregular" horiz-adv-x="1908" >
<font-face units-per-em="2048" ascent="1530" descent="-518" />
<missing-glyph horiz-adv-x="614" />
<glyph unicode="&#xfb01;" horiz-adv-x="2250" d="M215 0v1260h1309v-224h-1063v-270h739v-223h-739v-543h-246zM1790 0v1260h246v-1260h-246z" />
<glyph unicode="&#xfb02;" horiz-adv-x="3059" d="M215 0v1260h1309v-224h-1063v-270h739v-223h-739v-543h-246zM1790 0v1260h246v-1037h973v-223h-1219z" />
<glyph horiz-adv-x="0" />
<glyph horiz-adv-x="682" />
<glyph unicode="&#xd;" horiz-adv-x="614" />
<glyph unicode=" "  horiz-adv-x="614" />
<glyph unicode="&#x09;" horiz-adv-x="614" />
<glyph unicode="&#xa0;" horiz-adv-x="614" />
<glyph unicode="!" horiz-adv-x="731" d="M197 0v223h317v-223h-317zM199 1370v113h311v-113l-57 -979h-197z" />
<glyph unicode="&#x22;" horiz-adv-x="614" d="M90 881v555h139v-555h-139zM385 881v555h139v-555h-139z" />
<glyph unicode="#" horiz-adv-x="1560" d="M154 602v191h245l37 235h-215v191h248l43 264h205l-41 -264h303l43 264h205l-43 -264h213v-191h-248l-37 -235h215v-191h-248l-59 -364h-205l62 364h-306l-61 -364h-205l60 364h-211zM602 793h305l39 235h-305z" />
<glyph unicode="$" horiz-adv-x="1943" d="M106 223l134 178q257 -165 573 -200v477q-333 9 -494 101t-161 278q0 193 167.5 307.5t487.5 134.5v84h246v-88q412 -57 620 -211l-149 -164q-215 114 -471 152v-381q360 -19 534 -123t174 -307q0 -218 -179.5 -341.5t-528.5 -142.5v-112h-246v117q-455 38 -707 241z M416 1090q0 -165 397 -183v375q-195 -7 -296 -57t-101 -135zM1059 193q217 13 329.5 78.5t112.5 172.5q0 210 -442 222v-473z" />
<glyph unicode="%" horiz-adv-x="2342" d="M156 1110q0 167 123 287q119 116 290 116q172 0 291 -116q123 -123 123 -287q0 -165 -123 -285q-119 -116 -291 -116q-173 0 -290 114q-123 120 -123 287zM369 -20l1327 1503h278l-1325 -1503h-280zM373 1110q0 -84 56.5 -141.5t139.5 -57.5q82 0 138.5 57.5t56.5 141.5 t-56.5 141.5t-138.5 57.5q-83 0 -139.5 -57t-56.5 -142zM1360 375q0 165 125 287q119 116 291 116q169 0 288 -116q123 -120 123 -287t-123 -287q-120 -117 -288 -117q-171 0 -291 117q-125 119 -125 287zM1577 375q0 -83 58 -141t141 -58q82 0 137 57t55 142t-55 141.5 t-137 56.5q-85 0 -142 -56.5t-57 -141.5z" />
<glyph unicode="&#x26;" horiz-adv-x="1929" d="M84 418q0 322 516 446q-76 122 -76 246q0 123 80 227q63 82 158 127t203 45q179 0 290 -103.5t111 -268.5q0 -141 -98.5 -246t-286.5 -160q134 -172 297 -309q127 101 213 352h252q-80 -266 -287 -479q168 -74 348 -74v-227q-286 15 -538 147q-245 -168 -584 -168 q-267 0 -432.5 127.5t-165.5 317.5zM332 410q0 -99 101 -161.5t274 -62.5q171 0 385 103q-195 177 -353 387q-407 -64 -407 -266zM766 1110q0 -83 76 -201q284 35 284 234q0 65 -48.5 111t-121.5 46q-85 0 -137.5 -52.5t-52.5 -137.5z" />
<glyph unicode="'" horiz-adv-x="317" d="M90 881v555h139v-555h-139z" />
<glyph unicode="(" horiz-adv-x="884" d="M147 664q0 194 47.5 373.5t131.5 314.5q78 127 181 191t257 81v-115h-4q-158 0 -263.5 -228t-105.5 -617q0 -393 103 -615.5t268 -222.5h2v-115q-154 17 -257.5 81t-180.5 188q-84 134 -131.5 311.5t-47.5 372.5z" />
<glyph unicode=")" horiz-adv-x="892" d="M119 -174h2q164 0 267.5 223t103.5 615q0 387 -105.5 616t-263.5 229h-4v115q154 -17 256.5 -81.5t179.5 -190.5q85 -137 132.5 -316.5t47.5 -371.5q0 -195 -47.5 -373.5t-130.5 -313.5q-77 -123 -180 -186t-258 -80v115z" />
<glyph unicode="*" horiz-adv-x="1179" d="M109 1063l63 194l326 -124l-39 350h243l-38 -350l325 124l64 -194l-348 -68l225 -274l-166 -119l-184 311l-183 -311l-166 119l226 274z" />
<glyph unicode="+" d="M346 524v164h524v506h164v-506h529v-164h-529v-506h-164v506h-524z" />
<glyph unicode="," horiz-adv-x="727" d="M205 0v223h317v-280q0 -224 -256 -224h-47v121q154 3 154 86v74h-168z" />
<glyph unicode="-" horiz-adv-x="1087" d="M123 543v223h842v-223h-842z" />
<glyph unicode="." horiz-adv-x="727" d="M205 0v223h317v-223h-317z" />
<glyph unicode="/" horiz-adv-x="1110" d="M-59 -20l950 1503h278l-948 -1503h-280z" />
<glyph unicode="0" d="M176 741q0 152 60 290.5t174 248.5q109 106 249 162.5t295 56.5q158 0 298 -56t249 -163q114 -110 173 -248t59 -291q0 -154 -59 -292t-173 -248q-227 -221 -547 -221q-155 0 -296 57t-250 164q-114 110 -173 248t-59 292zM424 741q0 -235 149 -386.5t381 -151.5 t381.5 151.5t149.5 386.5q0 236 -149 387.5t-382 151.5t-381.5 -151.5t-148.5 -387.5z" />
<glyph unicode="1" horiz-adv-x="784" d="M57 1135v213q135 44 240 135h244v-1483h-246v1237z" />
<glyph unicode="2" horiz-adv-x="1716" d="M63 0q12 281 163 460.5t454 274.5q63 19 174 48.5t182 52.5t123 51q107 61 107 160q0 105 -106 169t-294 64q-318 0 -579 -207l-156 164q340 264 739 264q292 0 477 -133.5t185 -337.5q0 -154 -95.5 -250.5t-295.5 -152.5q-53 -15 -201.5 -50.5t-226.5 -62.5 q-135 -47 -222 -116t-137 -175h1215v-223h-1506z" />
<glyph unicode="3" horiz-adv-x="1763" d="M31 279l164 163q137 -125 289 -183t337 -58q243 0 370.5 65t127.5 183q0 113 -146 167t-444 54q-76 0 -117 -2v200h226q200 0 306.5 57.5t106.5 161.5q0 193 -403 193q-308 0 -567 -166l-142 152q338 235 707 235q311 0 485 -109t174 -294q0 -215 -227 -318 q146 -49 223.5 -143.5t77.5 -220.5q0 -205 -204 -322t-580 -117q-247 0 -429.5 71t-334.5 231z" />
<glyph unicode="4" horiz-adv-x="1660" d="M51 291v223l981 969h242v-969h340v-223h-340v-291h-246v291h-977zM313 514h715v709z" />
<glyph unicode="5" horiz-adv-x="1810" d="M82 279l192 131q236 -217 627 -217q220 0 346.5 78t126.5 206q0 124 -134.5 198.5t-377.5 74.5q-277 0 -536 -134l-209 115l231 752h1168v-223h-1002l-141 -408q253 104 510 104q344 0 543.5 -132.5t199.5 -346.5q0 -222 -196.5 -361t-524.5 -139q-527 0 -823 302z" />
<glyph unicode="6" horiz-adv-x="1871" d="M154 733q0 253 141 445q116 156 295.5 241.5t396.5 85.5q199 0 366.5 -69.5t284.5 -200.5l-180 -143q-168 190 -471 190q-184 0 -323 -84q-126 -76 -195.5 -189.5t-69.5 -240.5q0 -32 11 -92q293 256 604 256q202 0 360 -61.5t243 -168.5t85 -241q0 -223 -183.5 -354.5 t-512.5 -131.5q-403 0 -627.5 202t-224.5 556zM465 451q133 -248 534 -248q206 0 328.5 71t122.5 181q0 116 -123 193t-321 77q-162 0 -303.5 -71.5t-237.5 -202.5z" />
<glyph unicode="7" horiz-adv-x="1566" d="M31 1260v223h1487v-223l-967 -1260h-283l965 1260h-1202z" />
<glyph unicode="8" horiz-adv-x="1828" d="M123 414q0 123 94 219t270 145q-126 41 -194 122t-68 185q0 193 179 303.5t507 110.5q330 0 511.5 -110.5t181.5 -303.5q0 -104 -68.5 -185t-194.5 -122q176 -49 270.5 -145t94.5 -219q0 -205 -205 -322t-586 -117t-586.5 117t-205.5 322zM379 434q0 -113 136 -173 t400 -60t399.5 60t135.5 173q0 236 -535 236q-536 0 -536 -236zM471 1083q0 -101 114.5 -158t329.5 -57t329 57t114 158q0 197 -443 197q-444 0 -444 -197z" />
<glyph unicode="9" horiz-adv-x="1822" d="M78 1008q0 225 189.5 359t520.5 134q256 0 449 -95t297 -270t104 -407q0 -335 -245 -551q-111 -99 -259.5 -152t-316.5 -53q-410 0 -665 252l165 160q75 -90 200 -138t284 -48q132 0 248 45q152 58 242.5 190t90.5 295q0 50 -12 82q-107 -125 -269 -193.5t-351 -68.5 q-310 0 -491 125.5t-181 333.5zM328 1028q0 -121 115 -193.5t317 -72.5q173 0 317 72t238 206q-149 244 -547 244q-204 0 -322 -71t-118 -185z" />
<glyph unicode=":" horiz-adv-x="727" d="M205 0v223h317v-223h-317zM205 745v224h317v-224h-317z" />
<glyph unicode=";" horiz-adv-x="737" d="M205 0v223h317v-280q0 -224 -256 -224h-47v121q154 3 154 86v74h-168zM205 745v224h317v-224h-317z" />
<glyph unicode="&#x3c;" d="M342 549v127l1223 538v-176l-987 -424v-6l987 -426v-176z" />
<glyph unicode="=" d="M346 295v164h1217v-164h-1217zM346 758v164h1217v-164h-1217z" />
<glyph unicode="&#x3e;" d="M342 6v176l987 426v4l-987 426v179l1223 -545v-125z" />
<glyph unicode="?" horiz-adv-x="1488" d="M45 1208q275 285 680 285q314 0 492 -119t178 -319q0 -147 -72.5 -228t-239.5 -127q-30 -8 -78.5 -20.5t-76 -20t-62 -19.5t-59.5 -24q-122 -60 -131 -225h-199q-2 16 -2 49q0 154 78 246.5t250 153.5q27 9 70.5 24t65.5 22.5t54.5 20t48.5 22t36.5 24.5t29.5 30 t15.5 35.5t6.5 44.5q0 102 -103.5 157.5t-301.5 55.5q-324 0 -510 -201zM422 0v223h317v-223h-317z" />
<glyph unicode="@" horiz-adv-x="1699" d="M129 643q0 164 64 301q88 195 278 311.5t424 116.5q203 0 377 -100q141 -82 221 -220.5t80 -299.5q0 -212 -134 -352t-335 -140q-157 0 -193 102q-91 -61 -182 -61q-109 0 -176.5 74t-67.5 198q0 109 43 207t123 170q97 88 230 88q69 0 133 -37l16 29h168 q-72 -230 -110.5 -377.5t-38.5 -179.5q0 -44 24 -68t68 -24q116 0 184 96.5t68 267.5q0 220 -136 352t-362 132q-261 0 -421.5 -158t-160.5 -416q0 -553 578 -553h12v-141h-78q-308 0 -501 193q-94 93 -144.5 218.5t-50.5 270.5zM651 545q0 -115 92 -115q86 0 153 103 t67 253q0 69 -21.5 100.5t-71.5 31.5q-83 0 -151 -108.5t-68 -264.5z" />
<glyph unicode="A" horiz-adv-x="1939" d="M31 0l784 1483h309l785 -1483h-269l-172 332h-997l-172 -332h-268zM592 555h756l-377 717z" />
<glyph unicode="B" horiz-adv-x="2164" d="M248 0v1483h1198q226 0 354.5 -110.5t128.5 -295.5q0 -105 -46.5 -180.5t-145.5 -132.5q254 -86 254 -375q0 -191 -142 -290t-419 -99h-1182zM494 223h938q158 0 232.5 48t74.5 153q0 110 -66 162.5t-203 52.5h-976v-416zM494 862h956q102 0 171 58.5t69 142.5 q0 90 -62.5 143.5t-167.5 53.5h-966v-398z" />
<glyph unicode="C" horiz-adv-x="2142" d="M174 745q0 358 301 586q124 95 292 147t357 52q274 0 491 -98t363 -287l-223 -80q-116 124 -270.5 182t-360.5 58q-203 0 -362 -72.5t-245.5 -200t-86.5 -287.5q0 -253 191.5 -407t517.5 -154q201 0 350.5 58.5t267.5 185.5l211 -117q-159 -187 -361 -269.5t-483 -82.5 q-191 0 -360.5 52t-292.5 145q-297 224 -297 589z" />
<glyph unicode="D" horiz-adv-x="2181" d="M248 0v1483h938q387 0 613 -206t226 -552q0 -321 -239 -528q-107 -95 -249.5 -146t-303.5 -51h-985zM494 223h759q221 0 363.5 142.5t142.5 365.5q0 237 -152 383t-401 146h-712v-1037z" />
<glyph unicode="E" horiz-adv-x="1923" d="M248 0v1483h1495v-223h-1249v-379h868v-224h-868v-434h1306v-223h-1552z" />
<glyph unicode="F" horiz-adv-x="1783" d="M248 0v1483h1495v-223h-1249v-379h868v-224h-868v-657h-246z" />
<glyph unicode="G" horiz-adv-x="2236" d="M170 743q0 358 301 586q127 97 298.5 149t371.5 52q250 0 446 -87.5t357 -271.5l-230 -114q-233 248 -594 248q-136 0 -259 -37t-214 -103q-221 -164 -221 -422q0 -249 190.5 -405t503.5 -156q240 0 404 99t235 284h-690v223h997v-22q0 -179 -67.5 -329t-190 -256 t-299.5 -165t-389 -59q-191 0 -360 52.5t-293 146.5q-297 226 -297 587z" />
<glyph unicode="H" horiz-adv-x="2174" d="M248 0v1483h246v-602h1187v602h246v-1483h-246v657h-1187v-657h-246z" />
<glyph unicode="I" horiz-adv-x="741" d="M248 0v1483h246v-1483h-246z" />
<glyph unicode="J" horiz-adv-x="1613" d="M84 467h250q17 -156 111 -222.5t290 -66.5q219 0 315.5 67.5t96.5 229.5v1008h246v-1008q0 -253 -171.5 -386.5t-500.5 -133.5q-299 0 -462 131.5t-175 380.5z" />
<glyph unicode="K" horiz-adv-x="1968" d="M248 0v1483h246v-768l1038 768h354l-758 -561l840 -922h-315l-713 780l-446 -329v-451h-246z" />
<glyph unicode="L" horiz-adv-x="1679" d="M248 0v1483h246v-1260h1144v-223h-1390z" />
<glyph unicode="M" horiz-adv-x="2533" d="M248 0v1483h305l713 -897l714 897h306v-1483h-246v1212h-6l-770 -966l-764 966h-6v-1212h-246z" />
<glyph unicode="N" horiz-adv-x="2179" d="M248 0v1483h305l1133 -1217v1217h245v-1483h-303l-1134 1217v-1217h-246z" />
<glyph unicode="O" horiz-adv-x="2244" d="M170 743q0 357 303 586q126 95 294.5 148t356.5 53q187 0 356.5 -53t293.5 -148q301 -230 301 -586q0 -364 -299 -589q-125 -94 -293 -145.5t-359 -51.5t-361.5 52.5t-293.5 146.5q-299 225 -299 587zM426 743q0 -252 190 -406.5t508 -154.5q316 0 505.5 155t189.5 406 q0 257 -222 422q-91 66 -213.5 103t-259.5 37q-204 0 -363.5 -72.5t-247 -200.5t-87.5 -289z" />
<glyph unicode="P" horiz-adv-x="1951" d="M248 0v1483h1175q227 0 360.5 -126t133.5 -337q0 -220 -139 -337.5t-402 -117.5h-882v-565h-246zM494 788h886q139 0 212 58.5t73 169.5q0 244 -301 244h-870v-472z" />
<glyph unicode="Q" horiz-adv-x="2244" d="M170 745q0 357 303 586q126 95 294.5 148t356.5 53q187 0 356.5 -53t293.5 -148q301 -228 301 -586q0 -225 -114.5 -397t-338.5 -282l184 -203l-229 -74l-182 201q-143 -31 -271 -31q-190 0 -359 52.5t-294 146.5q-301 228 -301 587zM426 745q0 -249 191 -405t507 -156 q22 0 88 4l-159 179l233 69l172 -190q178 72 269.5 199.5t91.5 299.5q0 258 -224 424q-91 66 -213 103t-258 37q-137 0 -260.5 -37t-214.5 -103q-223 -162 -223 -424z" />
<glyph unicode="R" horiz-adv-x="2064" d="M248 0v1483h1169q233 0 366.5 -125.5t133.5 -341.5q0 -188 -105 -298.5t-280 -139.5l397 -578h-284l-402 565h-749v-565h-246zM494 788h886q137 0 211 59.5t74 168.5q0 244 -307 244h-864v-472z" />
<glyph unicode="S" horiz-adv-x="1923" d="M94 215l135 178q350 -213 750 -213q260 0 400.5 70t140.5 192q0 114 -109 164q-92 41 -337 60q-47 3 -153 10q-59 4 -90 6q-146 10 -248 25t-190 42.5t-139.5 69t-80 103.5t-28.5 147q0 210 195.5 330.5t552.5 120.5q477 0 803 -220l-150 -165q-329 168 -672 168 q-227 0 -347.5 -53.5t-120.5 -147.5q0 -98 129 -144q71 -25 176.5 -35t260 -18.5t269.5 -23.5q280 -36 412.5 -137t132.5 -285q0 -235 -209 -364.5t-600 -129.5q-567 0 -883 250z" />
<glyph unicode="T" horiz-adv-x="1744" d="M41 1260v223h1663v-223h-709v-1260h-245v1260h-709z" />
<glyph unicode="U" horiz-adv-x="2154" d="M238 479v1004h245v-944q0 -173 152.5 -266t443.5 -93q290 0 441 93t151 266v944h246v-1004q0 -231 -227.5 -377.5t-610.5 -146.5q-384 0 -612.5 147t-228.5 377z" />
<glyph unicode="V" horiz-adv-x="1900" d="M10 1483h275l665 -1237l666 1237h274l-798 -1483h-283z" />
<glyph unicode="W" horiz-adv-x="2428" d="M41 1483h274l373 -1241l371 1241h311l371 -1241l373 1241h274l-485 -1483h-318l-371 1239l-370 -1239h-314z" />
<glyph unicode="X" horiz-adv-x="1886" d="M27 0l755 752l-729 731h320l571 -578l569 578h320l-729 -731l756 -752h-320l-598 598l-596 -598h-319z" />
<glyph unicode="Y" horiz-adv-x="1888" d="M10 1483h305l631 -692l627 692h305l-811 -897v-586h-246v586z" />
<glyph unicode="Z" horiz-adv-x="1816" d="M102 0v223l1225 1037h-1206v223h1538v-223l-1225 -1037h1280v-223h-1612z" />
<glyph unicode="[" horiz-adv-x="921" d="M266 -289v1913h580v-115h-334v-1683h334v-115h-580z" />
<glyph unicode="\" horiz-adv-x="1110" d="M-59 1483h278l950 -1503h-280z" />
<glyph unicode="]" horiz-adv-x="907" d="M78 -174h334v1683h-334v115h579v-1913h-579v115z" />
<glyph unicode="^" d="M338 653l539 805h157l537 -805h-207l-406 613h-6l-409 -613h-205z" />
<glyph unicode="_" horiz-adv-x="1024" d="M0 -340h1024v-143h-1024v143z" />
<glyph unicode="`" horiz-adv-x="1024" d="M262 1710h238l141 -340h-125z" />
<glyph unicode="a" horiz-adv-x="1730" d="M27 0l686 1260h305l686 -1260h-270l-146 270h-846l-145 -270h-270zM565 494h600l-299 557z" />
<glyph unicode="b" horiz-adv-x="1875" d="M215 0v1260h1036q200 0 315 -96.5t115 -254.5q0 -159 -149 -258q105 -54 153 -128.5t48 -182.5q0 -165 -126 -252.5t-368 -87.5h-1024zM461 223h778q117 0 181.5 39t64.5 105q0 74 -58 115.5t-167 41.5h-799v-301zM461 748h794q87 0 137 40t50 107q0 65 -47 103t-131 38 h-803v-288z" />
<glyph unicode="c" horiz-adv-x="1851" d="M139 635q0 305 264 498q108 78 255.5 122.5t308.5 44.5q237 0 423 -84.5t332 -259.5l-225 -77q-197 200 -514 200q-267 0 -427.5 -123.5t-160.5 -320.5q0 -202 159 -325.5t433 -123.5q162 0 287 50t227 157l211 -112q-147 -165 -321.5 -239.5t-409.5 -74.5 q-187 0 -345 50t-267 138.5t-169.5 212t-60.5 267.5z" />
<glyph unicode="d" horiz-adv-x="1884" d="M215 0v1260h815q330 0 531.5 -174.5t201.5 -446.5q0 -138 -50.5 -247t-160.5 -228q-60 -65 -194.5 -114.5t-286.5 -49.5h-856zM461 223h626q181 0 296.5 113t115.5 287q0 186 -123 299.5t-327 113.5h-588v-813z" />
<glyph unicode="e" horiz-adv-x="1673" d="M215 0v1260h1309v-224h-1063v-270h739v-223h-739v-320h1110v-223h-1356z" />
<glyph unicode="f" horiz-adv-x="1574" d="M215 0v1260h1309v-224h-1063v-270h739v-223h-739v-543h-246z" />
<glyph unicode="g" horiz-adv-x="1927" d="M139 633q0 307 264 500q110 81 259.5 125.5t318.5 44.5q418 0 692 -293l-231 -115q-193 184 -475 184q-250 0 -412 -127t-162 -319q0 -198 158 -323.5t416 -125.5q189 0 320.5 73t193.5 210h-568v223h875v-39q0 -152 -58.5 -279.5t-164 -217.5t-259.5 -140.5t-339 -50.5 q-164 0 -310 44t-254 122q-264 193 -264 504z" />
<glyph unicode="h" horiz-adv-x="1894" d="M215 0v1260h246v-494h973v494h245v-1260h-245v543h-973v-543h-246z" />
<glyph unicode="i" horiz-adv-x="675" d="M215 0v1260h246v-1260h-246z" />
<glyph unicode="j" horiz-adv-x="1433" d="M70 422h247q13 -130 89 -185t235 -55q177 0 254.5 51.5t77.5 176.5v850h246v-850q0 -217 -150 -332t-438 -115q-534 0 -561 459z" />
<glyph unicode="k" horiz-adv-x="1738" d="M215 0v1260h246v-617l858 617h362l-671 -484l727 -776h-318l-600 639l-358 -258v-381h-246z" />
<glyph unicode="l" horiz-adv-x="1484" d="M215 0v1260h246v-1037h973v-223h-1219z" />
<glyph unicode="m" horiz-adv-x="2197" d="M215 0v1260h369l514 -713l516 713h368v-1260h-245v1044l-6 -8l-633 -858l-631 866l-6 -8v-1036h-246z" />
<glyph unicode="n" horiz-adv-x="1898" d="M215 0v1260h367l856 -1051v1051h245v-1260h-366l-856 1051v-1051h-246z" />
<glyph unicode="o" horiz-adv-x="1935" d="M139 633q0 306 267 500q109 79 256 124.5t307 45.5t306 -45t255 -125q266 -195 266 -500q0 -311 -264 -504q-107 -79 -252.5 -122.5t-310.5 -43.5q-164 0 -311 44t-255 122q-264 193 -264 504zM393 633q0 -200 158 -324.5t418 -124.5q259 0 415 124.5t156 324.5 q0 194 -159 320t-412 126q-254 0 -415 -127t-161 -319z" />
<glyph unicode="p" horiz-adv-x="1712" d="M215 0v1260h1018q200 0 319 -109t119 -291q0 -191 -124 -294t-355 -103h-731v-463h-246zM461 686h735q110 0 166.5 43.5t56.5 126.5q0 93 -57.5 136.5t-179.5 43.5h-721v-350z" />
<glyph unicode="q" horiz-adv-x="1935" d="M139 633q0 308 264 502q108 80 255.5 125t310.5 45q161 0 308 -45.5t255 -124.5q264 -194 264 -502q0 -379 -373 -570l158 -172l-233 -71l-156 166q-128 -23 -223 -23q-164 0 -311 45t-255 123q-264 194 -264 502zM393 633q0 -200 157 -324.5t419 -124.5h37l-140 148 l236 69l155 -163q283 122 283 395q0 194 -159 321t-412 127q-254 0 -415 -127t-161 -321z" />
<glyph unicode="r" horiz-adv-x="1830" d="M215 0v1260h1018q200 0 319 -109t119 -291q0 -153 -80 -251t-233 -132l340 -477h-283l-330 463h-624v-463h-246zM461 686h735q110 0 166.5 43.5t56.5 126.5q0 93 -57.5 136.5t-179.5 43.5h-721v-350z" />
<glyph unicode="s" horiz-adv-x="1667" d="M92 193l133 174q261 -183 639 -183q214 0 330.5 54t116.5 145q0 101 -144 141q-60 17 -145.5 24t-210 11.5t-213.5 13.5q-234 22 -344.5 100.5t-110.5 227.5q0 181 177 286t497 105q427 0 690 -184l-151 -160q-246 129 -535 129q-420 0 -420 -149q0 -29 12.5 -49.5 t41.5 -34.5t61.5 -22.5t89 -14.5t106 -10t131 -10t146.5 -13q309 -30 447.5 -114t138.5 -265q0 -203 -182 -313.5t-525 -110.5q-484 0 -776 222z" />
<glyph unicode="t" horiz-adv-x="1552" d="M51 1036v224h1450v-224h-602v-1036h-246v1036h-602z" />
<glyph unicode="u" horiz-adv-x="1865" d="M201 414v846h245v-797q0 -136 124 -207.5t364 -71.5q237 0 361 72t124 207v797h246v-846q0 -199 -198.5 -325t-532.5 -126q-336 0 -534.5 126t-198.5 325z" />
<glyph unicode="v" horiz-adv-x="1695" d="M10 1260h273l565 -1047l565 1047h273l-697 -1260h-282z" />
<glyph unicode="w" horiz-adv-x="2129" d="M41 1260h272l303 -1047l302 1047h294l301 -1047l304 1047h272l-428 -1260h-295l-301 1053l-301 -1053h-295z" />
<glyph unicode="x" horiz-adv-x="1675" d="M27 0l655 639l-633 621h309l480 -476l479 476h309l-633 -621l656 -639h-310l-501 494l-502 -494h-309z" />
<glyph unicode="y" horiz-adv-x="1695" d="M10 1260h299l539 -574l538 574h300l-717 -764v-496h-246v496z" />
<glyph unicode="z" horiz-adv-x="1570" d="M82 0v223l1008 813h-994v224h1346v-224l-1010 -813h1057v-223h-1407z" />
<glyph unicode="{" horiz-adv-x="845" d="M45 668q223 98 223 258v374q0 179 95.5 251.5t314.5 72.5h65v-115q-118 0 -173.5 -57.5t-55.5 -179.5q0 -17 1 -73.5t1 -96.5q0 -342 -115 -430v-4q62 -46 89.5 -148.5t27.5 -271.5q0 -29 -2 -96.5t-2 -104.5q0 -114 54.5 -167.5t168.5 -53.5h6v-115q-144 0 -232.5 16.5 t-146 60.5t-79 115t-21.5 187q0 48 2 127t2 111q0 93 -16.5 153t-65.5 103q-37 32 -141 84z" />
<glyph unicode="|" horiz-adv-x="1280" d="M535 -481v2048h210v-2048h-210z" />
<glyph unicode="}" horiz-adv-x="829" d="M80 -174h6q118 0 170.5 55.5t52.5 177.5q0 27 -2 89t-2 96q0 340 117 424v4q-115 84 -115 428q0 16 1 75t1 103q0 231 -223 231h-6v115h65q219 0 314.5 -73.5t95.5 -250.5v-374q0 -83 55 -145.5t168 -112.5q-132 -55 -182.5 -138.5t-50.5 -240.5q0 -36 7 -102t7 -97 q0 -75 -9.5 -130.5t-32 -98.5t-57.5 -71t-88.5 -46t-120.5 -25.5t-159 -7.5h-12v115z" />
<glyph unicode="~" d="M297 565q41 46 75.5 76.5t81 60t102.5 44t122 14.5q137 0 289 -76q151 -80 256 -80q131 0 268 154l119 -123q-84 -94 -175 -144.5t-218 -50.5q-133 0 -285 76q-151 80 -252 80q-135 0 -266 -156z" />
<glyph unicode="&#xa1;" horiz-adv-x="731" d="M217 1260v223h318v-223h-318zM221 0v113l58 979h196l57 -979v-113h-311z" />
<glyph unicode="&#xa2;" horiz-adv-x="1617" d="M154 741q0 198 140.5 331.5t405.5 184.5v226h246v-230q317 -38 518 -282l-217 -74q-126 123 -301 147v-600q180 18 305 146l203 -105q-200 -231 -508 -258v-227h-246v227q-269 46 -407.5 177.5t-138.5 336.5zM424 741q0 -109 71 -186.5t205 -112.5v600 q-132 -36 -204 -116t-72 -185z" />
<glyph unicode="&#xa3;" horiz-adv-x="1501" d="M70 674v196h180q-23 90 -23 150q0 221 169 352t462 131q297 0 545 -196l-123 -187q-197 162 -444 162q-363 0 -363 -268q0 -55 29 -144h534v-196h-485q12 -64 12 -121q0 -86 -31.5 -164.5t-85.5 -128.5q74 6 121 6q104 0 281 -29.5t250 -29.5q119 0 231 59l113 -203 q-167 -75 -299 -75q-75 0 -253.5 32.5t-281.5 32.5q-194 0 -385 -102l-139 221q246 194 246 403q0 33 -17 99h-243z" />
<glyph unicode="&#xa4;" horiz-adv-x="1536" d="M276 358q24 22 71.5 67t70.5 67q-72 115 -72 233q0 129 72 233q-24 22 -71.5 67.5t-70.5 68.5q20 19 58 57.5t57 58.5q24 -23 71 -69t70 -68q109 72 236 72q133 0 236 -72q24 22 71 68t70 69q96 -96 115 -116q-23 -23 -71 -68.5t-71 -67.5q74 -108 74 -233 q0 -117 -74 -233q24 -21 71.5 -67t70.5 -67q-19 -20 -115 -116q-23 22 -69.5 68t-69.5 69q-107 -72 -238 -72q-133 0 -236 72q-24 -22 -71 -68.5t-70 -68.5q-19 20 -57 58.5t-58 57.5zM510 727q0 -106 76 -182t182 -76q107 0 183.5 76t76.5 182q0 109 -78.5 182.5 t-179.5 73.5q-109 0 -184.5 -75.5t-75.5 -180.5z" />
<glyph unicode="&#xa5;" horiz-adv-x="1933" d="M25 1483h305l631 -692l626 692h305l-553 -613h201v-196h-379l-80 -88v-86h459v-197h-459v-303h-245v303h-459v197h459v86l-80 88h-379v196h201z" />
<glyph unicode="&#xa6;" horiz-adv-x="1024" d="M438 -350v758h150v-758h-150zM438 674v758h150v-758h-150z" />
<glyph unicode="&#xa7;" horiz-adv-x="1851" d="M141 92l138 180q314 -196 653 -196q213 0 329.5 57t116.5 154q0 109 -143 149q-62 18 -148.5 26t-215 13.5t-216.5 13.5q-239 22 -350.5 101t-111.5 231q0 85 32 144t105 106q-58 47 -84.5 102t-26.5 127q0 185 172 291.5t486 106.5q451 0 712 -199l-145 -156 q-291 146 -584 146q-188 0 -290.5 -43t-102.5 -117q0 -75 111 -112q52 -17 120.5 -25t184 -15.5t180.5 -13.5q316 -32 457 -115.5t141 -267.5q0 -83 -29 -140.5t-96 -102.5q98 -101 98 -236q0 -206 -183 -319t-527 -113q-497 0 -783 223zM440 850q0 -60 68 -95t209 -50 q45 -4 164 -10t230.5 -18.5t221.5 -37.5q72 54 72 127q0 63 -54.5 106t-158.5 62q-82 15 -283.5 22t-322.5 25q-146 -41 -146 -131z" />
<glyph unicode="&#xa8;" horiz-adv-x="1024" d="M178 1528q0 54 38 92.5t91 38.5q54 0 92.5 -38.5t38.5 -92.5q0 -52 -38.5 -89.5t-92.5 -37.5t-91.5 37t-37.5 90zM590 1528q0 54 38 92.5t91 38.5t92 -39.5t39 -91.5q0 -51 -38.5 -89t-92.5 -38t-91.5 37t-37.5 90z" />
<glyph unicode="&#xa9;" horiz-adv-x="1705" d="M119 725q0 303 219 522q213 213 514 213q309 0 524 -215q211 -211 211 -520q0 -305 -211 -516q-107 -107 -241.5 -163t-282.5 -56q-299 0 -516 217t-217 518zM207 725q0 -265 190 -455t455 -190q271 0 463 192q186 186 186 453q0 130 -48.5 248.5t-139.5 210.5 q-188 188 -461 188q-267 0 -453 -186q-192 -192 -192 -461zM465 721q0 212 107.5 334.5t287.5 122.5q264 0 334 -267h-129q-55 164 -201 164q-122 0 -189 -90.5t-67 -261.5q0 -164 68 -254t188 -90q156 0 211 182h129q-35 -146 -122 -216.5t-232 -70.5q-176 0 -280.5 119.5 t-104.5 327.5z" />
<glyph unicode="&#xaa;" horiz-adv-x="1142" d="M0 637l465 850h213l465 -850h-203l-96 178h-545l-96 -178h-203zM391 983h361l-181 336z" />
<glyph unicode="&#xab;" horiz-adv-x="1482" d="M154 657l346 334h299l-332 -334l326 -331h-301zM684 657l348 334h297l-330 -334l326 -331h-301z" />
<glyph unicode="&#xac;" d="M346 678v164h1217v-551h-164v387h-1053z" />
<glyph unicode="&#xad;" horiz-adv-x="1087" d="M123 543v223h842v-223h-842z" />
<glyph unicode="&#xae;" horiz-adv-x="776" d="M72 1176q0 125 93 217t222 92q135 0 226.5 -91t91.5 -225q0 -130 -94 -222.5t-230 -92.5q-128 0 -218.5 93t-90.5 229zM121 1169q0 -114 77.5 -192t188.5 -78q114 0 192 78t78 192q0 113 -77 190t-193 77q-113 0 -189.5 -76.5t-76.5 -190.5zM264 997v342h121 q71 0 108 -26t37 -74q0 -64 -73 -90l75 -152h-81l-66 142h-49v-142h-72zM336 1186h49q68 0 68 49t-72 49h-45v-98z" />
<glyph unicode="&#xaf;" horiz-adv-x="1024" d="M160 1436v151h702v-151h-702z" />
<glyph unicode="&#xb0;" horiz-adv-x="1089" d="M174 1145q0 145 113 252q103 100 260 100q155 0 258 -100q113 -107 113 -252t-113 -252q-103 -100 -258 -100q-152 0 -260 100q-113 107 -113 252zM322 1145q0 -88 65 -150.5t160 -62.5q93 0 158 62.5t65 150.5q0 89 -65.5 153t-157.5 64q-93 0 -159 -63.5t-66 -153.5z " />
<glyph unicode="&#xb1;" d="M346 0v164h1217v-164h-1217zM346 711v163h524v412h164v-412h529v-163h-529v-412h-164v412h-524z" />
<glyph unicode="&#xb2;" horiz-adv-x="1132" d="M41 592q9 169 108.5 276t299.5 164q45 13 115.5 30t118.5 31t83 31q70 37 70 97q0 63 -70 101t-195 38q-210 0 -383 -125l-102 98q223 160 489 160q192 0 314.5 -80.5t122.5 -202.5q0 -93 -63 -150.5t-195 -90.5q-39 -10 -135.5 -31.5t-147.5 -36.5q-90 -29 -147.5 -70.5 t-90.5 -105.5h803v-133h-995z" />
<glyph unicode="&#xb3;" horiz-adv-x="1163" d="M20 760l109 98q172 -145 414 -145q159 0 243 38.5t84 108.5q0 68 -96 100.5t-293 32.5h-78v119h150q132 0 202 34.5t70 98.5q0 115 -266 115q-203 0 -375 -100l-92 92q225 141 467 141q204 0 319 -66t115 -176q0 -131 -149 -190q96 -30 147 -87.5t51 -131.5 q0 -123 -134.5 -193.5t-383.5 -70.5q-163 0 -283.5 42.5t-220.5 139.5z" />
<glyph unicode="&#xb4;" horiz-adv-x="1024" d="M387 1370l141 340h238l-254 -340h-125z" />
<glyph unicode="&#xb5;" horiz-adv-x="1150" d="M-113 -428l318 1499h180l-129 -600q-14 -63 -14 -133q0 -99 52 -153t148 -54q135 0 211 96t121 308l115 536h178l-156 -731q-22 -108 -22 -133q0 -37 17 -52.5t55 -15.5q20 0 32 2l-30 -143q-49 -10 -109 -10q-64 0 -97 29.5t-52 99.5q-88 -131 -271 -131 q-82 0 -143 27.5t-113 88.5l-110 -530h-181z" />
<glyph unicode="&#xb6;" horiz-adv-x="1935" d="M102 1020q0 211 133.5 337t360.5 126h1034v-1821h-246v903h-266v-903h-246v903h-229q-263 0 -402 117.5t-139 337.5zM354 1016q0 -111 73 -169.5t212 -58.5h233v472h-217q-301 0 -301 -244zM1118 788h266v472h-266v-472z" />
<glyph unicode="&#xb7;" horiz-adv-x="952" d="M317 543v223h318v-223h-318z" />
<glyph unicode="&#xb8;" horiz-adv-x="1024" d="M258 -383l39 74q67 -25 106 -25q45 0 75 23t30 55q0 22 -14 35.5t-37 13.5q-32 0 -56 -35l-63 29q61 110 121 227h123l-68 -108q79 -7 121.5 -48t42.5 -108q0 -76 -60 -124t-163 -48q-99 0 -197 39z" />
<glyph unicode="&#xb9;" horiz-adv-x="518" d="M37 1272v129q88 23 160 80h159v-889h-161v741z" />
<glyph unicode="&#xba;" horiz-adv-x="1245" d="M82 1067q0 187 153 312.5t388 125.5q236 0 388 -125t152 -313q0 -192 -150 -315t-390 -123q-238 0 -389.5 124t-151.5 314zM268 1067q0 -122 97.5 -198t257.5 -76t257 76.5t97 197.5q0 118 -98.5 195t-255.5 77t-256 -77t-99 -195z" />
<glyph unicode="&#xbb;" horiz-adv-x="1482" d="M154 991h297l348 -334l-340 -331h-301l325 331zM684 991h299l346 -334l-338 -331h-301l326 331z" />
<glyph unicode="&#xbc;" horiz-adv-x="2142" d="M-8 -20l1327 1503h278l-1325 -1503h-280zM37 1286v119q80 23 149 76h154v-830h-154v692zM1128 164v125l619 540h151v-540h213v-125h-213v-164h-155v164h-615zM1292 289h451v395z" />
<glyph unicode="&#xbd;" horiz-adv-x="2177" d="M-8 -20l1327 1503h278l-1325 -1503h-280zM37 1286v119q80 23 149 76h154v-830h-154v692zM1137 0q8 157 102.5 257.5t284.5 154.5q41 11 110 27t114.5 28.5t78.5 28.5q65 36 65 90q0 60 -66.5 95.5t-185.5 35.5q-199 0 -364 -117l-98 92q215 148 467 148q185 0 300 -73.5 t115 -188.5q0 -87 -59.5 -141t-185.5 -87q-39 -10 -131 -28.5t-140 -32.5q-86 -27 -140 -65.5t-85 -98.5h766v-125h-948z" />
<glyph unicode="&#xbe;" horiz-adv-x="2758" d="M18 807l105 92q168 -135 395 -135q152 0 232.5 36t80.5 103q0 123 -372 123h-74v111h143q126 0 193 32.5t67 90.5q0 108 -253 108q-192 0 -359 -92l-88 84q213 131 444 131q196 0 306 -60.5t110 -164.5q0 -120 -143 -179q93 -27 141.5 -79.5t48.5 -122.5 q0 -115 -128 -180.5t-367 -65.5q-155 0 -271 39.5t-211 128.5zM608 -20l1327 1503h279l-1325 -1503h-281zM1745 164v125l618 540h152v-540h213v-125h-213v-164h-156v164h-614zM1909 289h450v395z" />
<glyph unicode="&#xbf;" horiz-adv-x="1488" d="M94 428q0 146 72 227t237 127q39 12 101.5 27t104.5 27t73 28q122 60 131 228h199q2 -27 2 -50q0 -154 -78 -246t-250 -153q-27 -10 -70.5 -24.5t-65.5 -22t-54.5 -20t-49 -22t-36.5 -24.5t-29.5 -30t-16 -35.5t-6.5 -44.5q0 -102 104 -157.5t302 -55.5q324 0 510 201 l170 -134q-271 -284 -680 -284q-314 0 -492 119t-178 319zM750 1260v223h317v-223h-317z" />
<glyph unicode="&#xc0;" horiz-adv-x="1939" d="M31 0l784 1483h309l785 -1483h-269l-172 332h-997l-172 -332h-268zM592 555h756l-377 717zM721 1937h237l142 -340h-125z" />
<glyph unicode="&#xc1;" horiz-adv-x="1939" d="M31 0l784 1483h309l785 -1483h-269l-172 332h-997l-172 -332h-268zM592 555h756l-377 717zM846 1597l141 340h238l-254 -340h-125z" />
<glyph unicode="&#xc2;" horiz-adv-x="1939" d="M31 0l784 1483h309l785 -1483h-269l-172 332h-997l-172 -332h-268zM575 1595l314 340h164l313 -340h-209l-186 203l-187 -203h-209zM592 555h756l-377 717z" />
<glyph unicode="&#xc3;" horiz-adv-x="1939" d="M31 0l784 1483h309l785 -1483h-269l-172 332h-997l-172 -332h-268zM592 555h756l-377 717zM614 1702q71 84 121 122t101 38t139.5 -39t122.5 -39q32 0 55 21.5t55 72.5l111 -76q-91 -172 -211 -172q-48 0 -101 19t-96.5 38t-66.5 19q-51 0 -109 -98z" />
<glyph unicode="&#xc4;" horiz-adv-x="1939" d="M31 0l784 1483h309l785 -1483h-269l-172 332h-997l-172 -332h-268zM592 555h756l-377 717zM637 1755q0 54 38 92.5t91 38.5q54 0 92.5 -38.5t38.5 -92.5q0 -52 -38.5 -89.5t-92.5 -37.5t-91.5 37t-37.5 90zM1049 1755q0 54 38 92.5t91 38.5q52 0 91.5 -39t39.5 -92 q0 -51 -38.5 -89t-92.5 -38t-91.5 37t-37.5 90z" />
<glyph unicode="&#xc5;" horiz-adv-x="1939" d="M31 0l784 1483h309l785 -1483h-269l-172 332h-997l-172 -332h-268zM592 555h756l-377 717zM741 1784q0 79 65.5 134.5t164.5 55.5t165 -55.5t66 -134.5t-65.5 -134t-165.5 -55q-99 0 -164.5 55t-65.5 134zM864 1784q0 -36 29.5 -60t77.5 -24q46 0 77 25t31 59t-31.5 60 t-76.5 26q-46 0 -76.5 -25.5t-30.5 -60.5z" />
<glyph unicode="&#xc6;" horiz-adv-x="2871" d="M31 0l1046 1483h1614v-223h-1249v-379h868v-224h-868v-434h1306v-223h-1552v332h-664l-231 -332h-270zM692 555h504v715z" />
<glyph unicode="&#xc7;" horiz-adv-x="2142" d="M174 745q0 358 301 586q124 95 292 147t357 52q275 0 492 -98t362 -287l-223 -80q-225 240 -631 240q-203 0 -362 -72.5t-245.5 -200t-86.5 -287.5q0 -253 191.5 -407t517.5 -154q200 0 350 59t268 185l211 -117q-153 -181 -352.5 -266.5t-464.5 -85.5h-10l-33 -53 q79 -7 121.5 -48t42.5 -108q0 -75 -60.5 -123.5t-162.5 -48.5q-99 0 -197 39l39 74q67 -25 106 -25q44 0 74.5 24t30.5 54q0 22 -14 35.5t-37 13.5q-32 0 -56 -35l-63 29q7 14 39 72.5t55 103.5q-405 44 -628.5 252.5t-223.5 529.5z" />
<glyph unicode="&#xc8;" horiz-adv-x="1923" d="M248 0v1483h1495v-223h-1249v-379h868v-224h-868v-434h1306v-223h-1552zM731 1937h238l141 -340h-125z" />
<glyph unicode="&#xc9;" horiz-adv-x="1923" d="M248 0v1483h1495v-223h-1249v-379h868v-224h-868v-434h1306v-223h-1552zM856 1597l141 340h238l-254 -340h-125z" />
<glyph unicode="&#xca;" horiz-adv-x="1923" d="M248 0v1483h1495v-223h-1249v-379h868v-224h-868v-434h1306v-223h-1552zM586 1595l313 340h164l313 -340h-209l-186 203l-186 -203h-209z" />
<glyph unicode="&#xcb;" horiz-adv-x="1923" d="M248 0v1483h1495v-223h-1249v-379h868v-224h-868v-434h1306v-223h-1552zM647 1755q0 54 38 92.5t91 38.5q54 0 92.5 -38.5t38.5 -92.5q0 -52 -38.5 -89.5t-92.5 -37.5t-91.5 37t-37.5 90zM1059 1755q0 54 38 92.5t91 38.5q52 0 91.5 -39t39.5 -92q0 -51 -38.5 -89 t-92.5 -38t-91.5 37t-37.5 90z" />
<glyph unicode="&#xcc;" horiz-adv-x="741" d="M121 1937h237l142 -340h-125zM248 0v1483h246v-1483h-246z" />
<glyph unicode="&#xcd;" horiz-adv-x="741" d="M246 1597l141 340h238l-254 -340h-125zM248 0v1483h246v-1483h-246z" />
<glyph unicode="&#xce;" horiz-adv-x="741" d="M-25 1595l314 340h164l313 -340h-209l-186 203l-187 -203h-209zM248 0v1483h246v-1483h-246z" />
<glyph unicode="&#xcf;" horiz-adv-x="741" d="M37 1755q0 54 38 92.5t91 38.5q54 0 92.5 -38.5t38.5 -92.5q0 -52 -38.5 -89.5t-92.5 -37.5t-91.5 37t-37.5 90zM248 0v1483h246v-1483h-246zM449 1755q0 54 38 92.5t91 38.5q52 0 91.5 -39t39.5 -92q0 -51 -38.5 -89t-92.5 -38t-91.5 37t-37.5 90z" />
<glyph unicode="&#xd0;" horiz-adv-x="2181" d="M100 664v223h148v596h938q387 0 613 -206t226 -552q0 -321 -239 -528q-107 -95 -249.5 -146t-303.5 -51h-985v664h-148zM494 223h759q221 0 363.5 142.5t142.5 365.5q0 237 -152 383t-401 146h-712v-373h686v-223h-686v-441z" />
<glyph unicode="&#xd1;" horiz-adv-x="2179" d="M248 0v1483h305l1133 -1217v1217h245v-1483h-303l-1134 1217v-1217h-246zM733 1702q72 85 121 122.5t100 37.5t140 -39t123 -39q32 0 55 21.5t55 72.5l111 -76q-91 -172 -211 -172q-48 0 -101 19t-96.5 38t-66.5 19q-51 0 -109 -98z" />
<glyph unicode="&#xd2;" horiz-adv-x="2244" d="M170 743q0 357 303 586q126 95 294.5 148t356.5 53q187 0 356.5 -53t293.5 -148q301 -230 301 -586q0 -364 -299 -589q-125 -94 -293 -145.5t-359 -51.5t-361.5 52.5t-293.5 146.5q-299 225 -299 587zM426 743q0 -252 190 -406.5t508 -154.5q316 0 505.5 155t189.5 406 q0 257 -222 422q-91 66 -213.5 103t-259.5 37q-204 0 -363.5 -72.5t-247 -200.5t-87.5 -289zM872 1937h238l141 -340h-125z" />
<glyph unicode="&#xd3;" horiz-adv-x="2244" d="M170 743q0 357 303 586q126 95 294.5 148t356.5 53q187 0 356.5 -53t293.5 -148q301 -230 301 -586q0 -364 -299 -589q-125 -94 -293 -145.5t-359 -51.5t-361.5 52.5t-293.5 146.5q-299 225 -299 587zM426 743q0 -252 190 -406.5t508 -154.5q316 0 505.5 155t189.5 406 q0 257 -222 422q-91 66 -213.5 103t-259.5 37q-204 0 -363.5 -72.5t-247 -200.5t-87.5 -289zM997 1597l142 340h237l-254 -340h-125z" />
<glyph unicode="&#xd4;" horiz-adv-x="2244" d="M170 743q0 357 303 586q126 95 294.5 148t356.5 53q187 0 356.5 -53t293.5 -148q301 -230 301 -586q0 -364 -299 -589q-125 -94 -293 -145.5t-359 -51.5t-361.5 52.5t-293.5 146.5q-299 225 -299 587zM426 743q0 -252 190 -406.5t508 -154.5q316 0 505.5 155t189.5 406 q0 257 -222 422q-91 66 -213.5 103t-259.5 37q-204 0 -363.5 -72.5t-247 -200.5t-87.5 -289zM727 1595l313 340h164l314 -340h-209l-187 203l-186 -203h-209z" />
<glyph unicode="&#xd5;" horiz-adv-x="2244" d="M170 743q0 357 303 586q126 95 294.5 148t356.5 53q187 0 356.5 -53t293.5 -148q301 -230 301 -586q0 -364 -299 -589q-125 -94 -293 -145.5t-359 -51.5t-361.5 52.5t-293.5 146.5q-299 225 -299 587zM426 743q0 -252 190 -406.5t508 -154.5q316 0 505.5 155t189.5 406 q0 257 -222 422q-91 66 -213.5 103t-259.5 37q-204 0 -363.5 -72.5t-247 -200.5t-87.5 -289zM766 1702q72 85 121 122.5t100 37.5t139.5 -39t122.5 -39q32 0 55.5 21.5t55.5 72.5l110 -76q-91 -172 -210 -172q-48 0 -101.5 19t-97 38t-66.5 19q-50 0 -108 -98z" />
<glyph unicode="&#xd6;" horiz-adv-x="2244" d="M170 743q0 357 303 586q126 95 294.5 148t356.5 53q187 0 356.5 -53t293.5 -148q301 -230 301 -586q0 -364 -299 -589q-125 -94 -293 -145.5t-359 -51.5t-361.5 52.5t-293.5 146.5q-299 225 -299 587zM426 743q0 -252 190 -406.5t508 -154.5q316 0 505.5 155t189.5 406 q0 257 -222 422q-91 66 -213.5 103t-259.5 37q-204 0 -363.5 -72.5t-247 -200.5t-87.5 -289zM788 1755q0 54 38.5 92.5t91.5 38.5q54 0 92.5 -38.5t38.5 -92.5q0 -52 -38.5 -89.5t-92.5 -37.5t-92 37t-38 90zM1200 1755q0 54 38 92.5t91 38.5t92 -39t39 -92q0 -51 -38.5 -89 t-92.5 -38t-91.5 37t-37.5 90z" />
<glyph unicode="&#xd7;" d="M387 1030l113 117l454 -453l455 453l111 -119l-451 -450l449 -447l-117 -115l-447 451l-444 -449l-117 117l445 443z" />
<glyph unicode="&#xd8;" horiz-adv-x="2244" d="M170 743q0 357 303 586q126 95 294.5 148t356.5 53q221 0 453 -90l125 151h192l-182 -221q363 -230 363 -627q0 -361 -299 -589q-123 -93 -292 -145t-360 -52q-248 0 -491 102l-125 -149h-195l187 225q-330 226 -330 608zM426 743q0 -133 53.5 -235.5t167.5 -192.5 l776 940q-152 50 -299 50q-137 0 -260.5 -37t-214.5 -103q-223 -158 -223 -422zM782 244q168 -62 342 -62q316 0 505.5 155t189.5 406q0 138 -62.5 247t-193.5 198z" />
<glyph unicode="&#xd9;" horiz-adv-x="2154" d="M238 479v1004h245v-944q0 -173 152.5 -266t443.5 -93q290 0 441 93t151 266v944h246v-1004q0 -231 -227.5 -377.5t-610.5 -146.5q-384 0 -612.5 147t-228.5 377zM827 1937h238l141 -340h-125z" />
<glyph unicode="&#xda;" horiz-adv-x="2154" d="M238 479v1004h245v-944q0 -173 152.5 -266t443.5 -93q290 0 441 93t151 266v944h246v-1004q0 -231 -227.5 -377.5t-610.5 -146.5q-384 0 -612.5 147t-228.5 377zM952 1597l142 340h237l-254 -340h-125z" />
<glyph unicode="&#xdb;" horiz-adv-x="2154" d="M238 479v1004h245v-944q0 -173 152.5 -266t443.5 -93q290 0 441 93t151 266v944h246v-1004q0 -231 -227.5 -377.5t-610.5 -146.5q-384 0 -612.5 147t-228.5 377zM682 1595l313 340h164l314 -340h-209l-187 203l-186 -203h-209z" />
<glyph unicode="&#xdc;" horiz-adv-x="2154" d="M238 479v1004h245v-944q0 -173 152.5 -266t443.5 -93q290 0 441 93t151 266v944h246v-1004q0 -231 -227.5 -377.5t-610.5 -146.5q-384 0 -612.5 147t-228.5 377zM743 1755q0 54 38 92.5t91 38.5q54 0 93 -38.5t39 -92.5q0 -52 -39 -89.5t-93 -37.5t-91.5 37t-37.5 90z M1155 1755q0 54 38 92.5t91 38.5q52 0 91.5 -39t39.5 -92q0 -51 -38.5 -89t-92.5 -38t-91.5 37t-37.5 90z" />
<glyph unicode="&#xdd;" horiz-adv-x="1888" d="M10 1483h305l631 -692l627 692h305l-811 -897v-586h-246v586zM819 1597l142 340h237l-254 -340h-125z" />
<glyph unicode="&#xde;" horiz-adv-x="1951" d="M248 0v1483h246v-223h929q227 0 360.5 -126t133.5 -337q0 -220 -139 -337.5t-402 -117.5h-882v-342h-246zM494 565h886q139 0 212 58.5t73 169.5q0 123 -74.5 183t-226.5 60h-870v-471z" />
<glyph unicode="&#xdf;" horiz-adv-x="3241" d="M92 193l133 174q261 -183 639 -183q214 0 330.5 54t116.5 145q0 101 -144 141q-60 17 -145.5 24t-210 11.5t-213.5 13.5q-234 22 -344.5 100.5t-110.5 227.5q0 181 177 286t497 105q427 0 690 -184l-151 -160q-246 129 -535 129q-420 0 -420 -149q0 -29 12.5 -49.5 t41.5 -34.5t61.5 -22.5t89 -14.5t106 -10t131 -10t146.5 -13q309 -30 447.5 -114t138.5 -265q0 -203 -182 -313.5t-525 -110.5q-484 0 -776 222zM1667 193l133 174q261 -183 639 -183q214 0 330.5 54t116.5 145q0 101 -144 141q-60 17 -145.5 24t-210 11.5t-213.5 13.5 q-234 22 -344.5 100.5t-110.5 227.5q0 181 176.5 286t495.5 105q425 0 690 -184l-149 -160q-246 129 -537 129q-418 0 -418 -149q0 -23 7.5 -40.5t25 -30t38 -22t54 -16t66.5 -11t82 -8.5t92.5 -7t106 -8.5t116.5 -10.5q308 -30 447 -114.5t139 -264.5q0 -201 -183 -312.5 t-524 -111.5q-484 0 -776 222z" />
<glyph unicode="&#xe0;" horiz-adv-x="1730" d="M27 0l686 1260h305l686 -1260h-270l-146 270h-846l-145 -270h-270zM565 494h600l-299 557zM616 1710h238l141 -340h-125z" />
<glyph unicode="&#xe1;" horiz-adv-x="1730" d="M27 0l686 1260h305l686 -1260h-270l-146 270h-846l-145 -270h-270zM565 494h600l-299 557zM741 1370l142 340h237l-254 -340h-125z" />
<glyph unicode="&#xe2;" horiz-adv-x="1730" d="M27 0l686 1260h305l686 -1260h-270l-146 270h-846l-145 -270h-270zM471 1368l313 340h164l314 -340h-209l-187 203l-186 -203h-209zM565 494h600l-299 557z" />
<glyph unicode="&#xe3;" horiz-adv-x="1730" d="M27 0l686 1260h305l686 -1260h-270l-146 270h-846l-145 -270h-270zM510 1475q71 84 120.5 121.5t100.5 37.5t139.5 -39t122.5 -39q32 0 55.5 22t55.5 73l110 -76q-91 -172 -210 -172q-48 0 -101.5 19t-97 38t-66.5 19q-49 0 -108 -99zM565 494h600l-299 557z" />
<glyph unicode="&#xe4;" horiz-adv-x="1730" d="M27 0l686 1260h305l686 -1260h-270l-146 270h-846l-145 -270h-270zM532 1528q0 54 38.5 92.5t91.5 38.5q54 0 92.5 -38.5t38.5 -92.5q0 -52 -38.5 -89.5t-92.5 -37.5t-92 37t-38 90zM565 494h600l-299 557zM944 1528q0 54 38 92.5t91 38.5t92 -39.5t39 -91.5 q0 -51 -38.5 -89t-92.5 -38t-91.5 37t-37.5 90z" />
<glyph unicode="&#xe5;" horiz-adv-x="1730" d="M27 0l686 1260h305l686 -1260h-270l-146 270h-846l-145 -270h-270zM565 494h600l-299 557zM637 1563q0 79 66 134.5t163 55.5q99 0 165.5 -55.5t66.5 -134.5t-66.5 -134t-165.5 -55t-164 55t-65 134zM758 1563q0 -35 30 -59.5t78 -24.5q45 0 77 25t32 59q0 35 -31.5 60.5 t-77.5 25.5t-77 -25.5t-31 -60.5z" />
<glyph unicode="&#xe6;" horiz-adv-x="2492" d="M27 0l915 1260h1401v-224h-1063v-270h739v-223h-739v-320h1110v-223h-1356v270h-561l-201 -270h-245zM635 494h399v548z" />
<glyph unicode="&#xe7;" horiz-adv-x="1851" d="M139 635q0 305 264 498q108 78 255.5 122.5t308.5 44.5q236 0 420.5 -84t334.5 -260l-225 -77q-106 106 -233.5 153t-296.5 47q-254 0 -413 -125t-159 -319q0 -199 157 -324t415 -125q173 0 299.5 47.5t234.5 159.5l211 -112q-140 -160 -312.5 -236.5t-398.5 -77.5 l-38 -61q79 -7 121 -48t42 -108q0 -76 -60 -124t-163 -48q-98 0 -196 39l38 74q67 -25 107 -25q45 0 74.5 23t29.5 55q0 22 -14 35.5t-37 13.5q-31 0 -55 -35l-64 29q40 70 99 182q-353 36 -549.5 215t-196.5 451z" />
<glyph unicode="&#xe8;" horiz-adv-x="1673" d="M215 0v1260h1309v-224h-1063v-270h739v-223h-739v-320h1110v-223h-1356zM600 1710h238l141 -340h-125z" />
<glyph unicode="&#xe9;" horiz-adv-x="1673" d="M215 0v1260h1309v-224h-1063v-270h739v-223h-739v-320h1110v-223h-1356zM725 1370l141 340h238l-254 -340h-125z" />
<glyph unicode="&#xea;" horiz-adv-x="1673" d="M215 0v1260h1309v-224h-1063v-270h739v-223h-739v-320h1110v-223h-1356zM455 1368l313 340h164l313 -340h-209l-186 203l-186 -203h-209z" />
<glyph unicode="&#xeb;" horiz-adv-x="1673" d="M215 0v1260h1309v-224h-1063v-270h739v-223h-739v-320h1110v-223h-1356zM516 1528q0 54 38 92.5t91 38.5q54 0 92.5 -38.5t38.5 -92.5q0 -52 -38.5 -89.5t-92.5 -37.5t-91.5 37t-37.5 90zM928 1528q0 54 38 92.5t91 38.5t92 -39.5t39 -91.5q0 -51 -38.5 -89t-92.5 -38 t-91.5 37t-37.5 90z" />
<glyph unicode="&#xec;" horiz-adv-x="675" d="M88 1710h238l141 -340h-125zM215 0v1260h246v-1260h-246z" />
<glyph unicode="&#xed;" horiz-adv-x="675" d="M213 1370l141 340h238l-254 -340h-125zM215 0v1260h246v-1260h-246z" />
<glyph unicode="&#xee;" horiz-adv-x="675" d="M-57 1368l313 340h164l313 -340h-209l-186 203l-186 -203h-209zM215 0v1260h246v-1260h-246z" />
<glyph unicode="&#xef;" horiz-adv-x="675" d="M4 1528q0 54 38 92.5t91 38.5q54 0 92.5 -38.5t38.5 -92.5q0 -52 -38.5 -89.5t-92.5 -37.5t-91.5 37t-37.5 90zM215 0v1260h246v-1260h-246zM416 1528q0 54 38 92.5t91 38.5t92 -39.5t39 -91.5q0 -51 -38.5 -89t-92.5 -38t-91.5 37t-37.5 90z" />
<glyph unicode="&#xf0;" horiz-adv-x="1884" d="M111 528v224h102v508h815q330 0 531.5 -174.5t201.5 -446.5q0 -274 -213 -475q-65 -63 -202.5 -113.5t-276.5 -50.5h-856v528h-102zM459 223h626q181 0 296.5 113t115.5 287q0 186 -123 299.5t-327 113.5h-588v-284h588v-224h-588v-305z" />
<glyph unicode="&#xf1;" horiz-adv-x="1898" d="M215 0v1260h367l856 -1051v1051h245v-1260h-366l-856 1051v-1051h-246zM594 1475q71 84 120.5 121.5t100.5 37.5t139.5 -39t122.5 -39q32 0 55.5 22t55.5 73l110 -76q-91 -172 -211 -172q-48 0 -101 19t-96.5 38t-66.5 19q-49 0 -108 -99z" />
<glyph unicode="&#xf2;" horiz-adv-x="1935" d="M139 633q0 306 267 500q109 79 256 124.5t307 45.5t306 -45t255 -125q266 -195 266 -500q0 -311 -264 -504q-107 -79 -252.5 -122.5t-310.5 -43.5q-164 0 -311 44t-255 122q-264 193 -264 504zM393 633q0 -200 158 -324.5t418 -124.5q259 0 415 124.5t156 324.5 q0 194 -159 320t-412 126q-254 0 -415 -127t-161 -319zM719 1710h237l142 -340h-125z" />
<glyph unicode="&#xf3;" horiz-adv-x="1935" d="M139 633q0 306 267 500q109 79 256 124.5t307 45.5t306 -45t255 -125q266 -195 266 -500q0 -311 -264 -504q-107 -79 -252.5 -122.5t-310.5 -43.5q-164 0 -311 44t-255 122q-264 193 -264 504zM393 633q0 -200 158 -324.5t418 -124.5q259 0 415 124.5t156 324.5 q0 194 -159 320t-412 126q-254 0 -415 -127t-161 -319zM844 1370l141 340h238l-254 -340h-125z" />
<glyph unicode="&#xf4;" horiz-adv-x="1935" d="M139 633q0 306 267 500q109 79 256 124.5t307 45.5t306 -45t255 -125q266 -195 266 -500q0 -311 -264 -504q-107 -79 -252.5 -122.5t-310.5 -43.5q-164 0 -311 44t-255 122q-264 193 -264 504zM393 633q0 -200 158 -324.5t418 -124.5q259 0 415 124.5t156 324.5 q0 194 -159 320t-412 126q-254 0 -415 -127t-161 -319zM573 1368l314 340h164l313 -340h-209l-186 203l-187 -203h-209z" />
<glyph unicode="&#xf5;" horiz-adv-x="1935" d="M139 633q0 306 267 500q109 79 256 124.5t307 45.5t306 -45t255 -125q266 -195 266 -500q0 -311 -264 -504q-107 -79 -252.5 -122.5t-310.5 -43.5q-164 0 -311 44t-255 122q-264 193 -264 504zM393 633q0 -200 158 -324.5t418 -124.5q259 0 415 124.5t156 324.5 q0 194 -159 320t-412 126q-254 0 -415 -127t-161 -319zM612 1475q71 84 121 121.5t101 37.5t139.5 -39t122.5 -39q32 0 55 21.5t55 73.5l111 -76q-91 -172 -211 -172q-48 0 -101 19t-96.5 38t-66.5 19q-51 0 -109 -99z" />
<glyph unicode="&#xf6;" horiz-adv-x="1935" d="M139 633q0 306 267 500q109 79 256 124.5t307 45.5t306 -45t255 -125q266 -195 266 -500q0 -311 -264 -504q-107 -79 -252.5 -122.5t-310.5 -43.5q-164 0 -311 44t-255 122q-264 193 -264 504zM393 633q0 -200 158 -324.5t418 -124.5q259 0 415 124.5t156 324.5 q0 194 -159 320t-412 126q-254 0 -415 -127t-161 -319zM635 1528q0 54 38 92.5t91 38.5q54 0 92.5 -38.5t38.5 -92.5q0 -52 -38.5 -89.5t-92.5 -37.5t-91.5 37t-37.5 90zM1047 1528q0 54 38 92.5t91 38.5q52 0 91.5 -39.5t39.5 -91.5q0 -51 -38.5 -89t-92.5 -38t-91.5 37 t-37.5 90z" />
<glyph unicode="&#xf7;" horiz-adv-x="1705" d="M254 541v139h1198v-139h-1198zM729 242q0 52 37 88.5t88 36.5t88 -36.5t37 -88.5q0 -51 -36.5 -88t-88.5 -37q-54 0 -89.5 36t-35.5 89zM729 979q0 52 37 89.5t88 37.5t88 -37.5t37 -89.5q0 -51 -36.5 -88t-88.5 -37t-88.5 36t-36.5 89z" />
<glyph unicode="&#xf8;" horiz-adv-x="1935" d="M139 633q0 306 267 500q109 79 256 124.5t307 45.5q190 0 391 -76l96 112h186l-153 -180q307 -195 307 -526q0 -311 -264 -504q-107 -79 -252.5 -122.5t-310.5 -43.5q-202 0 -406 80l-112 -135h-189l170 203q-293 194 -293 522zM393 633q0 -107 45 -190.5t142 -153.5 l626 753q-121 37 -237 37q-254 0 -415 -127t-161 -319zM715 225q116 -41 254 -41q259 0 415 124.5t156 324.5q0 108 -49 192.5t-152 155.5z" />
<glyph unicode="&#xf9;" horiz-adv-x="1865" d="M201 414v846h245v-797q0 -136 124 -207.5t364 -71.5q237 0 361 72t124 207v797h246v-846q0 -199 -198.5 -325t-532.5 -126q-336 0 -534.5 126t-198.5 325zM684 1710h238l141 -340h-125z" />
<glyph unicode="&#xfa;" horiz-adv-x="1865" d="M201 414v846h245v-797q0 -136 124 -207.5t364 -71.5q237 0 361 72t124 207v797h246v-846q0 -199 -198.5 -325t-532.5 -126q-336 0 -534.5 126t-198.5 325zM809 1370l141 340h238l-254 -340h-125z" />
<glyph unicode="&#xfb;" horiz-adv-x="1865" d="M201 414v846h245v-797q0 -136 124 -207.5t364 -71.5q237 0 361 72t124 207v797h246v-846q0 -199 -198.5 -325t-532.5 -126q-336 0 -534.5 126t-198.5 325zM539 1368l313 340h164l313 -340h-209l-186 203l-186 -203h-209z" />
<glyph unicode="&#xfc;" horiz-adv-x="1865" d="M201 414v846h245v-797q0 -136 124 -207.5t364 -71.5q237 0 361 72t124 207v797h246v-846q0 -199 -198.5 -325t-532.5 -126q-336 0 -534.5 126t-198.5 325zM600 1528q0 54 38 92.5t91 38.5q54 0 92.5 -38.5t38.5 -92.5q0 -52 -38.5 -89.5t-92.5 -37.5t-91.5 37t-37.5 90z M1012 1528q0 54 38 92.5t91 38.5t92 -39.5t39 -91.5q0 -51 -38.5 -89t-92.5 -38t-91.5 37t-37.5 90z" />
<glyph unicode="&#xfd;" horiz-adv-x="1695" d="M10 1260h299l539 -574l538 574h300l-717 -764v-496h-246v496zM723 1370l141 340h238l-254 -340h-125z" />
<glyph unicode="&#xfe;" horiz-adv-x="1712" d="M215 0v1260h246v-130h772q201 0 319.5 -108.5t118.5 -290.5q0 -191 -124 -294t-355 -103h-731v-334h-246zM461 557h735q110 0 166.5 43.5t56.5 126.5q0 93 -57.5 136.5t-179.5 43.5h-721v-350z" />
<glyph unicode="&#xff;" horiz-adv-x="1695" d="M10 1260h299l539 -574l538 574h300l-717 -764v-496h-246v496zM514 1528q0 54 38 92.5t91 38.5q54 0 92.5 -38.5t38.5 -92.5q0 -52 -38.5 -89.5t-92.5 -37.5t-91.5 37t-37.5 90zM926 1528q0 54 38 92.5t91 38.5t92 -39.5t39 -91.5q0 -51 -38.5 -89t-92.5 -38t-91.5 37 t-37.5 90z" />
<glyph unicode="&#x152;" horiz-adv-x="3139" d="M170 739q0 343 297 559q120 88 283 136.5t346 48.5h1863v-223h-1249v-379h868v-224h-868v-434h1307v-223h-1915q-188 0 -352 47t-283 131q-297 210 -297 561zM426 739q0 -236 179.5 -376t492.5 -140h182q90 0 137 33t47 92v805q0 95 -196 104h-172q-303 0 -486.5 -144.5 t-183.5 -373.5z" />
<glyph unicode="&#x153;" horiz-adv-x="2699" d="M139 629q0 296 260 477q104 73 244.5 113.5t298.5 40.5h1608v-224h-1063v-270h739v-223h-739v-320h1110v-223h-1649q-161 0 -302 39.5t-245 110.5q-262 180 -262 479zM395 629q0 -188 145 -297t402 -109h156q143 0 143 58v684q0 71 -129 71h-170q-248 0 -397.5 -113.5 t-149.5 -293.5z" />
<glyph unicode="&#x178;" horiz-adv-x="1888" d="M10 1483h305l631 -692l627 692h305l-811 -897v-586h-246v586zM610 1755q0 54 38 92.5t91 38.5q54 0 92.5 -38.5t38.5 -92.5q0 -52 -38.5 -89.5t-92.5 -37.5t-91.5 37t-37.5 90zM1022 1755q0 54 38 92.5t91 38.5t92 -39t39 -92q0 -51 -38.5 -89t-92.5 -38t-91.5 37 t-37.5 90z" />
<glyph unicode="&#x2c6;" horiz-adv-x="1024" d="M117 1368l313 340h164l313 -340h-209l-186 203l-186 -203h-209z" />
<glyph unicode="&#x2dc;" horiz-adv-x="1024" d="M156 1475q71 84 120.5 121.5t100.5 37.5t139.5 -39t122.5 -39q32 0 55.5 22t55.5 73l110 -76q-91 -172 -211 -172q-48 0 -101 19t-96.5 38t-66.5 19q-51 0 -109 -99z" />
<glyph unicode="&#x2000;" horiz-adv-x="987" />
<glyph unicode="&#x2001;" horiz-adv-x="1974" />
<glyph unicode="&#x2002;" horiz-adv-x="987" />
<glyph unicode="&#x2003;" horiz-adv-x="1974" />
<glyph unicode="&#x2004;" horiz-adv-x="658" />
<glyph unicode="&#x2005;" horiz-adv-x="493" />
<glyph unicode="&#x2006;" horiz-adv-x="329" />
<glyph unicode="&#x2007;" horiz-adv-x="329" />
<glyph unicode="&#x2008;" horiz-adv-x="246" />
<glyph unicode="&#x2009;" horiz-adv-x="394" />
<glyph unicode="&#x200a;" horiz-adv-x="109" />
<glyph unicode="&#x2010;" horiz-adv-x="1087" d="M123 543v223h842v-223h-842z" />
<glyph unicode="&#x2011;" horiz-adv-x="1087" d="M123 543v223h842v-223h-842z" />
<glyph unicode="&#x2012;" horiz-adv-x="1087" d="M123 543v223h842v-223h-842z" />
<glyph unicode="&#x2013;" horiz-adv-x="1730" d="M123 543v223h1468v-223h-1468z" />
<glyph unicode="&#x2014;" horiz-adv-x="1996" d="M123 543v223h1751v-223h-1751z" />
<glyph unicode="&#x2018;" horiz-adv-x="563" d="M123 979v281q0 223 256 223h47v-121q-154 -3 -154 -86v-74h168v-223h-317z" />
<glyph unicode="&#x2019;" horiz-adv-x="563" d="M123 1260v223h317v-281q0 -223 -256 -223h-47v121q154 0 154 86v74h-168z" />
<glyph unicode="&#x201a;" horiz-adv-x="747" d="M215 0v223h317v-280q0 -224 -256 -224h-47v121q154 3 154 86v74h-168z" />
<glyph unicode="&#x201c;" horiz-adv-x="1050" d="M123 979v281q0 223 256 223h47v-121q-154 -3 -154 -86v-74h168v-223h-317zM610 979v281q0 223 256 223h47v-121q-153 -3 -153 -86v-74h168v-223h-318z" />
<glyph unicode="&#x201d;" horiz-adv-x="1050" d="M123 1260v223h317v-281q0 -223 -256 -223h-47v121q154 0 154 86v74h-168zM610 1260v223h318v-281q0 -223 -256 -223h-47v121q153 0 153 86v74h-168z" />
<glyph unicode="&#x201e;" horiz-adv-x="1214" d="M215 0v223h317v-280q0 -224 -256 -224h-47v121q154 3 154 86v74h-168zM682 0v223h317v-280q0 -224 -256 -224h-47v121q154 3 154 86v74h-168z" />
<glyph unicode="&#x2022;" horiz-adv-x="1089" d="M174 727q0 145 113 252q103 100 260 100q155 0 258 -100q113 -107 113 -252t-113 -252q-103 -100 -258 -100q-152 0 -260 100q-113 107 -113 252z" />
<glyph unicode="&#x2026;" horiz-adv-x="2048" d="M182 0v223h318v-223h-318zM864 0v223h318v-223h-318zM1548 0v223h318v-223h-318z" />
<glyph unicode="&#x202f;" horiz-adv-x="394" />
<glyph unicode="&#x2039;" horiz-adv-x="942" d="M150 657l346 334h297l-330 -334l325 -331h-301z" />
<glyph unicode="&#x203a;" horiz-adv-x="942" d="M150 991h296l347 -334l-338 -331h-301l325 331z" />
<glyph unicode="&#x205f;" horiz-adv-x="493" />
<glyph unicode="&#x20ac;" d="M70 498v186h194q-2 18 -2 55q0 59 4 88h-196v187h241q88 226 303.5 355.5t483.5 129.5q241 0 431.5 -95t319.5 -278l-196 -77q-102 119 -238 175t-317 56q-165 0 -300.5 -71.5t-211.5 -194.5h647v-187h-717q-6 -43 -6 -88q0 -37 2 -55h721v-186h-670q68 -137 209.5 -216 t337.5 -79q178 0 310 55t235 176l186 -112q-139 -181 -317.5 -261.5t-425.5 -80.5q-188 0 -349 59.5t-280 177.5t-170 281h-229z" />
<glyph unicode="&#x2122;" horiz-adv-x="837" d="M20 1395v67h293v-67h-104v-273h-84v273h-105zM381 1122v340h119l80 -205l73 205h117v-340h-80v256l-94 -256h-37l-96 256v-256h-82z" />
<glyph unicode="&#x25fc;" horiz-adv-x="1259" d="M0 0v1260h1260v-1260h-1260z" />
</font>
</defs>
</svg>
